<svg width="20" height="20" viewBox="0 0 20 20" fill="none" xmlns="http://www.w3.org/2000/svg">
<path d="M10.2905 0.116505C10.213 0.0417327 10.1099 0 10.0026 0C9.89534 0 9.79221 0.0417327 9.7147 0.116505L0.130154 9.35C0.0894497 9.38927 0.0570666 9.43645 0.0349638 9.4887C0.0128611 9.54095 0.00149793 9.59718 0.00156179 9.65399L0 18.3199C0 18.7655 0.175522 19.1928 0.487952 19.5079C0.800382 19.823 1.22413 20 1.66597 20H6.6691C6.89002 20 7.10189 19.9115 7.25811 19.754C7.41432 19.5964 7.50208 19.3828 7.50208 19.16V12.0197C7.50208 11.9083 7.54596 11.8015 7.62407 11.7227C7.70218 11.644 7.80812 11.5997 7.91858 11.5997H12.0835C12.194 11.5997 12.2999 11.644 12.378 11.7227C12.4561 11.8015 12.5 11.9083 12.5 12.0197V19.16C12.5 19.3828 12.5878 19.5964 12.744 19.754C12.9002 19.9115 13.1121 20 13.333 20H18.334C18.7759 20 19.1996 19.823 19.512 19.5079C19.8245 19.1928 20 18.7655 20 18.3199V9.65399C20.0001 9.59718 19.9887 9.54095 19.9666 9.4887C19.9445 9.43645 19.9121 9.38927 19.8714 9.35L10.2905 0.116505Z" fill="#161616"/>
</svg>
