<svg width="23" height="26" viewBox="0 0 23 26" fill="none" xmlns="http://www.w3.org/2000/svg">
<path d="M11.3843 26C11.3333 26 11.2824 26 11.2569 25.9745C6.03656 24.0137 1.80934 19.7865 0.536076 15.1773C-0.889977 10.0588 0.790725 3.667 2.52236 1.65524C2.62422 1.55338 2.75155 1.50245 2.87888 1.52792L4.38132 1.8335C5.27261 2.01176 8.55762 1.93536 11.1551 0.0763957C11.2824 -0.0254652 11.4607 -0.0254652 11.588 0.0763957C14.1854 1.93536 17.5214 2.01176 18.4127 1.8335L19.9151 1.52792C20.0424 1.50245 20.1952 1.55338 20.2716 1.65524C22.0033 3.64153 23.684 10.0588 22.2579 15.1773C20.9847 19.761 16.7574 23.9883 11.4861 25.9745C11.4607 26 11.4097 26 11.3843 26ZM2.95527 2.34281C1.37643 4.40549 0.00130425 10.4153 1.27457 14.9736C2.47143 19.3026 6.44401 23.3007 11.3843 25.2106C16.3754 23.3007 20.348 19.3026 21.5704 14.9736C22.8436 10.3898 21.4685 4.40549 19.8897 2.34281L18.6164 2.59746C17.6487 2.80118 14.1854 2.75024 11.4097 0.865812C8.71041 2.69931 5.39993 2.82665 4.254 2.59746L2.95527 2.34281Z" fill="#221F48"/>
<path d="M19.1512 3.97369L18.8711 4.02463C18.4127 4.12649 17.9034 4.12649 17.5469 4.12649C16.7065 4.12649 13.9818 3.99916 11.3843 2.5731C8.78685 3.99916 6.113 4.12649 5.27264 4.12649C4.91613 4.12649 4.40683 4.10102 3.94845 4.02463L3.66833 3.97369C2.59879 6.11277 1.60565 10.7474 2.67519 14.5927C3.71927 18.3361 7.10614 21.8503 11.3843 23.6583C16.2736 21.5956 19.304 17.674 20.1698 14.5927C21.2139 10.722 20.2462 6.08731 19.1512 3.97369ZM11.3334 17.9032C8.22661 17.9032 5.73102 15.4076 5.73102 12.3008C5.73102 9.19407 8.22661 6.69848 11.3334 6.69848C14.4401 6.69848 16.9357 9.19407 16.9357 12.3008C16.9357 15.4076 14.4401 17.9032 11.3334 17.9032Z" fill="#FF7678"/>
<path d="M11.3351 18.4092C9.62895 18.4092 8.2793 15.7353 8.2793 12.2975C8.2793 8.85974 9.62895 6.18589 11.3351 6.18589C13.0413 6.18589 14.391 8.85974 14.391 12.2975C14.391 15.7353 13.0413 18.4092 11.3351 18.4092ZM11.3351 6.94985C10.2401 6.94985 9.04325 9.13986 9.04325 12.2975C9.04325 15.4552 10.2401 17.6452 11.3351 17.6452C12.4301 17.6452 13.627 15.4552 13.627 12.2975C13.627 9.13986 12.4301 6.94985 11.3351 6.94985Z" fill="#6FD2F2"/>
<path d="M15.7905 9.24196H13.7533C13.5496 9.24196 13.3713 9.0637 13.3713 8.85998C13.3713 8.65626 13.5496 8.478 13.7533 8.478H15.7905C15.9942 8.478 16.1725 8.65626 16.1725 8.85998C16.1725 9.0637 15.9942 9.24196 15.7905 9.24196Z" fill="#6FD2F2"/>
<path d="M12.2267 9.24196H6.87897C6.67525 9.24196 6.49699 9.0637 6.49699 8.85998C6.49699 8.65626 6.67525 8.478 6.87897 8.478H12.2267C12.4304 8.478 12.6086 8.65626 12.6086 8.85998C12.6086 9.0637 12.4304 9.24196 12.2267 9.24196Z" fill="#6FD2F2"/>
<path d="M15.5354 16.3752H7.13186C6.92814 16.3752 6.74988 16.1969 6.74988 15.9932C6.74988 15.7895 6.92814 15.6112 7.13186 15.6112H15.5354C15.7391 15.6112 15.9174 15.7895 15.9174 15.9932C15.9174 16.1969 15.7391 16.3752 15.5354 16.3752Z" fill="#6FD2F2"/>
<path d="M16.0455 12.8066H5.85936C5.65564 12.8066 5.47738 12.6283 5.47738 12.4246C5.47738 12.2209 5.65564 12.0426 5.85936 12.0426H16.0455C16.2492 12.0426 16.4274 12.2209 16.4274 12.4246C16.4274 12.6283 16.2492 12.8066 16.0455 12.8066Z" fill="#6FD2F2"/>
<path d="M11.3341 18.4092C7.97272 18.4092 5.22248 15.659 5.22248 12.2975C5.22248 8.93613 7.97272 6.18589 11.3341 6.18589C14.6955 6.18589 17.4458 8.93613 17.4458 12.2975C17.4458 15.659 14.6955 18.4092 11.3341 18.4092ZM11.3341 6.94985C8.38017 6.94985 5.98644 9.34358 5.98644 12.2975C5.98644 15.2515 8.38017 17.6452 11.3341 17.6452C14.2881 17.6452 16.6818 15.2515 16.6818 12.2975C16.6818 9.34358 14.2881 6.94985 11.3341 6.94985Z" fill="#221F48"/>
</svg>
