<svg width="27" height="27" viewBox="0 0 27 27" fill="none" xmlns="http://www.w3.org/2000/svg">
<path d="M9.25112 16.2477C9.25112 16.2477 9.73802 17.4893 10.7849 17.2215C11.5882 17.7571 12.6594 17.7571 13.4628 17.2215C14.2662 17.4893 15.0696 17.4893 16.1408 16.4181C17.2363 15.3226 17.8206 14.008 17.8206 14.008H17.212C17.212 14.008 15.0209 16.4912 14.534 16.4181C14.0715 16.3451 13.3898 15.7365 13.3898 15.7365C13.3898 15.7365 12.5134 16.7103 12.0995 16.7103C11.3205 16.7103 11.0527 15.9069 11.0527 15.9069C10.6388 16.3694 10.0302 16.4668 9.25112 16.2477Z" fill="#8BD9F2"/>
<path d="M20.3041 21.8956L19.7929 20.3132L10.9313 23.1859L11.3938 24.8657L20.3041 21.8956Z" fill="#FF7678"/>
<path d="M10.2263 16.8329C9.95851 16.8329 9.69072 16.7355 9.47162 16.5651C9.22817 16.3704 9.08209 16.1026 9.05775 15.7861C9.0334 15.4696 9.10644 15.1775 9.3012 14.934L10.0072 14.0819C10.1289 13.9359 10.3724 13.9115 10.5185 14.0332C10.6645 14.155 10.6889 14.3984 10.5671 14.5445L9.86113 15.3966C9.7881 15.4696 9.76375 15.5913 9.7881 15.6887C9.81244 15.8104 9.86114 15.9078 9.95852 15.9809C10.0559 16.0539 10.1776 16.1026 10.275 16.0782C10.3967 16.0782 10.4941 16.0295 10.5428 15.9322L13.6103 12.2561C13.732 12.11 13.9754 12.0856 14.1215 12.2074C14.2676 12.3291 14.2919 12.5725 14.1702 12.7186L11.1027 16.4434C10.908 16.6869 10.6158 16.8086 10.3237 16.8329C10.275 16.8329 10.2507 16.8329 10.2263 16.8329Z" fill="#221F48"/>
<path d="M20.5961 9.04123C20.4988 9.04123 20.4014 9.01688 20.3527 8.94385C20.2066 8.79778 20.2066 8.57867 20.3527 8.4326C21.01 7.77528 21.9351 6.94755 21.9595 6.9232C22.1055 6.80147 22.349 6.80148 22.4707 6.94755C22.5924 7.09362 22.5925 7.33707 22.4464 7.4588C22.4464 7.4588 21.4969 8.28653 20.864 8.94385C20.7909 8.99254 20.6935 9.04123 20.5961 9.04123Z" fill="#221F48"/>
<path d="M14.534 16.7594C14.3392 16.7594 14.1444 16.6863 13.9253 16.4916C13.7793 16.3455 13.7792 16.1264 13.901 15.9803C14.047 15.8342 14.2662 15.8342 14.4122 15.956C14.4853 16.029 14.5583 16.102 14.8991 15.8099C15.0452 15.6882 16.6033 14.1544 17.2849 13.2293C17.4067 13.0589 17.6258 13.0346 17.7962 13.1563C17.9666 13.278 17.991 13.4971 17.8692 13.6675C17.1145 14.6657 15.4591 16.2725 15.386 16.3455C15.386 16.3455 15.3617 16.3455 15.3617 16.3698C15.2643 16.4916 14.9235 16.7594 14.534 16.7594Z" fill="#221F48"/>
<path d="M9.49477 15.1747C9.39739 15.1747 9.27567 15.1503 9.17828 15.126C8.78876 15.0043 8.49663 14.7121 8.3749 14.3226C8.27752 13.9574 8.35055 13.5679 8.594 13.2757L12.6353 8.43108C12.5623 8.45543 12.4892 8.50411 12.4162 8.52846L11.7345 8.89364C11.7102 8.89364 11.6858 8.91798 11.6615 8.91798L11.418 8.99101C10.7364 9.18578 9.90864 8.79626 9.47043 8.09025C9.39739 7.96853 9.37305 7.82245 9.42174 7.67638C9.51912 7.38424 9.81125 7.26252 10.2495 7.0921C10.5659 6.94603 10.9798 6.77561 11.2963 6.53216C12.6596 5.53401 13.6334 5.0958 14.729 5.07146C14.8994 5.07146 15.0698 5.07146 15.2646 5.07146C16.3601 5.07146 17.6017 5.09581 19.038 3.82986C19.1841 3.70814 19.4276 3.70813 19.5493 3.8542C19.671 4.00027 19.671 4.24372 19.5249 4.36545C17.8695 5.80181 16.4088 5.77747 15.2646 5.77747C15.0941 5.77747 14.9237 5.77747 14.7533 5.77747C13.8525 5.80181 12.9761 6.16699 11.7589 7.0921C11.3693 7.38424 10.9068 7.579 10.5416 7.72507C10.4442 7.77376 10.3225 7.82246 10.2495 7.8468C10.5416 8.18763 10.9555 8.3337 11.2233 8.26066L11.4424 8.18763L12.0997 7.8468C12.3431 7.72507 12.6353 7.62769 12.8544 7.579C13.1222 7.50597 13.39 7.62769 13.536 7.8468C13.6821 8.06591 13.6578 8.35805 13.4874 8.57715L9.20262 13.714C9.10524 13.8113 9.0809 13.9574 9.12959 14.1035C9.15394 14.2009 9.22697 14.3469 9.44607 14.42C9.59215 14.4687 9.76256 14.3956 9.88428 14.2739L12.6109 11.0117C12.7327 10.8656 12.9761 10.8412 13.1222 10.963C13.2683 11.0847 13.2926 11.3281 13.1709 11.4742L10.3955 14.7365C10.1764 15.0286 9.8356 15.1747 9.49477 15.1747Z" fill="#221F48"/>
<path d="M12.0756 17.1959C11.8322 17.1959 11.5644 17.0985 11.3696 16.9281C10.9314 16.5629 10.6879 15.8813 11.0775 15.3457C11.1992 15.1753 11.4183 15.1509 11.5887 15.2483C11.7591 15.37 11.7835 15.5891 11.6861 15.7596C11.54 15.9787 11.6861 16.2465 11.8565 16.3682C12.0026 16.4899 12.246 16.4899 12.3434 16.3438L14.6805 13.7146C14.8023 13.5685 15.0457 13.5442 15.1918 13.6902C15.3379 13.812 15.3622 14.0554 15.2161 14.2015L12.879 16.8307C12.6599 17.0742 12.3677 17.1959 12.0756 17.1959Z" fill="#221F48"/>
<path d="M9.59364 6.31577C9.42322 6.31577 9.27715 6.19405 9.22846 6.02363L8.59548 2.76139C8.40072 1.93365 8.93631 1.10593 9.81273 0.886821C10.6405 0.69206 11.4925 1.32503 11.8821 2.42056C11.9551 2.61532 11.8577 2.81008 11.663 2.88311C11.4682 2.95615 11.2734 2.85877 11.2004 2.66401C10.9083 1.86062 10.3727 1.51979 9.98315 1.61717C9.5206 1.7389 9.20411 2.17711 9.32583 2.61532L9.95881 5.90191C10.0075 6.09667 9.86143 6.29143 9.66667 6.34012C9.64232 6.31577 9.61798 6.31577 9.59364 6.31577Z" fill="#221F48"/>
<path d="M11.3945 23.1613C11.2484 23.1613 11.1024 23.0639 11.0537 22.9178C10.8346 22.2848 10.5424 21.7736 10.1772 21.3841C8.25398 19.3147 7.42626 17.4645 7.2315 16.9533C6.84197 15.9795 5.33257 8.89504 5.25954 8.57856C5.08912 7.82386 5.57603 7.06916 6.37942 6.8744C6.81763 6.77702 7.6697 6.80136 8.10791 7.62909C8.20529 7.79951 8.13226 8.01861 7.96185 8.11599C7.79143 8.21337 7.57233 8.14034 7.47495 7.96993C7.18281 7.43434 6.57418 7.58041 6.54984 7.58041C6.13597 7.67779 5.89251 8.04296 5.96555 8.40814C6.50114 10.94 7.59667 15.9308 7.88882 16.6611C8.08358 17.148 8.83827 18.9009 10.6885 20.8485C11.1267 21.3354 11.4919 21.944 11.7353 22.65C11.8084 22.8448 11.6866 23.0395 11.5162 23.1126C11.4919 23.1369 11.4432 23.1613 11.3945 23.1613Z" fill="#221F48"/>
<path d="M19.0382 20.6536C18.8435 20.6536 18.6731 20.5075 18.6731 20.3127C18.6487 19.9719 18.6731 19.6798 18.6974 19.412C18.8435 18.2191 18.9652 17.7809 19.4521 16.661C20.0364 15.322 20.3042 14.1534 20.3285 13.5935C20.3285 13.5448 20.2798 13.1553 20.2311 12.7171C20.1094 11.5485 19.9147 9.82001 19.9147 9.1627C19.9147 8.91925 19.7442 8.72449 19.5495 8.70014C19.306 8.6758 18.9409 8.8949 18.7218 9.6496C18.6244 10.3799 18.1131 13.7396 17.9914 14.1047C17.9184 14.2995 17.7236 14.3969 17.5288 14.3238C17.3341 14.2508 17.2367 14.0561 17.3097 13.8613C17.3828 13.6178 17.7236 11.4511 18.0157 9.52787C18.0157 9.50353 18.0157 9.50352 18.0157 9.47918C18.3566 8.26192 19.0869 7.89675 19.6469 7.96979C20.2068 8.04282 20.645 8.52972 20.6694 9.114C20.6937 9.74697 20.8885 11.5485 20.9858 12.6197C21.0589 13.3987 21.0832 13.5205 21.0832 13.5692C21.0832 14.3482 20.718 15.6872 20.1581 16.9288C19.6956 17.9756 19.6225 18.3408 19.4765 19.4607C19.4521 19.7041 19.4278 19.9476 19.4521 20.2397C19.4278 20.4588 19.2573 20.6292 19.0382 20.6536C19.0626 20.6536 19.0382 20.6536 19.0382 20.6536Z" fill="#221F48"/>
<path d="M14.632 5.36655C14.4616 5.36655 14.3155 5.24482 14.2668 5.0744L13.6825 2.61556C13.6095 2.34776 13.4391 2.10431 13.1713 1.98258C12.9278 1.86086 12.6844 1.86086 12.4409 1.98258C12.0758 2.153 11.881 2.61555 11.9784 3.05376L12.3436 4.80661C12.3923 5.00137 12.2705 5.19613 12.0514 5.24482C11.8567 5.29351 11.6619 5.17178 11.6132 4.95268L11.248 3.22418C11.0776 2.46948 11.4185 1.66609 12.1001 1.34961C12.5383 1.15485 13.0252 1.15485 13.4634 1.34961C13.926 1.56871 14.2425 1.98258 14.3642 2.46948L14.9485 4.92834C14.9972 5.1231 14.8754 5.31786 14.6807 5.36655C14.6807 5.36655 14.6563 5.36655 14.632 5.36655Z" fill="#221F48"/>
<path d="M8.78863 11.9405C8.61822 11.9405 8.47215 11.8188 8.42346 11.6727L6.69496 4.49093C6.5002 3.66319 7.0358 2.81112 7.88788 2.61636C8.32609 2.51898 8.81299 2.66505 9.2512 3.07891C9.39727 3.22498 9.39726 3.44409 9.27554 3.59016C9.12947 3.73623 8.91037 3.73623 8.7643 3.6145C8.61823 3.49278 8.35043 3.27367 8.08264 3.32236C7.62008 3.44409 7.30359 3.8823 7.42532 4.32051L9.15381 11.5023C9.2025 11.6971 9.08078 11.8918 8.88602 11.9405C8.86168 11.9162 8.81298 11.9405 8.78863 11.9405Z" fill="#221F48"/>
<path d="M11.3942 25.2302C11.2238 25.2302 11.0778 25.1328 11.0534 24.9624L10.5665 23.2826C10.5178 23.0878 10.6152 22.893 10.81 22.8444L19.6716 19.9716C19.8663 19.8986 20.0611 20.0203 20.1341 20.2151L20.621 21.6515C20.6941 21.8462 20.5723 22.041 20.4019 22.114C20.2072 22.187 20.0124 22.0653 19.9394 21.8949L19.5742 20.7994L11.3942 23.453L11.7838 24.792C11.8325 24.9867 11.7351 25.1815 11.5403 25.2545C11.4673 25.2302 11.4429 25.2302 11.3942 25.2302Z" fill="#221F48"/>
<path d="M9.27547 26.0843C9.22678 26.0843 9.20243 26.0843 9.15374 26.06C3.6761 24.1854 0 19.0486 0 13.2788C0 9.52967 1.5094 6.04833 4.23605 3.46775C4.38212 3.32168 4.60122 3.34602 4.74729 3.49209C4.89336 3.63816 4.86902 3.88161 4.72295 4.00334C2.14237 6.43785 0.730352 9.74878 0.730352 13.2788C0.730352 18.7565 4.2117 23.6255 9.37285 25.3783C9.56762 25.4514 9.665 25.6461 9.59197 25.8409C9.56762 25.9869 9.42154 26.0843 9.27547 26.0843Z" fill="#FF7678"/>
<path d="M23.0075 22.7234C22.9102 22.7234 22.8371 22.699 22.7641 22.626C22.618 22.4799 22.618 22.2608 22.7641 22.1148C25.0525 19.7289 26.2941 16.5884 26.2941 13.2775C26.2941 7.1182 21.912 1.83532 15.8501 0.715443C15.6553 0.666752 15.5093 0.496341 15.5579 0.301581C15.6066 0.10682 15.777 -0.0392534 15.9718 0.00943673C22.3746 1.20235 27.0001 6.77737 27.0001 13.3019C27.0001 16.8075 25.6612 20.1185 23.251 22.626C23.2023 22.6747 23.1049 22.7234 23.0075 22.7234Z" fill="#FF7678"/>
</svg>
