<svg width="40" height="50" viewBox="0 0 40 50" fill="none" xmlns="http://www.w3.org/2000/svg">
<g filter="url(#filter0_i_207_2097)">
<path d="M27.8947 5.95238C27.8947 9.15979 25.2082 11.7674 21.8847 11.7674C18.5612 11.7674 15.8747 9.15979 15.8747 5.95238C15.8747 2.74498 18.5612 0.137363 21.8847 0.137363C25.2082 0.137363 27.8947 2.74498 27.8947 5.95238Z" fill="#FCB44B" fill-opacity="0.01" stroke="#FCB44B" stroke-width="0.274725"/>
<path d="M37.2385 42.8572C37.2385 46.7221 34.0014 49.8627 29.999 49.8627C25.9965 49.8627 22.7594 46.7221 22.7594 42.8572C22.7594 38.9923 25.9965 35.8517 29.999 35.8517C34.0014 35.8517 37.2385 38.9923 37.2385 42.8572Z" fill="#FCB44B" fill-opacity="0.01" stroke="#FCB44B" stroke-width="0.274725"/>
<path d="M37.7307 16.4284C37.7307 18.3208 36.1451 19.8624 34.1797 19.8624C32.2142 19.8624 30.6286 18.3208 30.6286 16.4284C30.6286 14.5359 32.2142 12.9943 34.1797 12.9943C36.1451 12.9943 37.7307 14.5359 37.7307 16.4284Z" fill="#FCB44B" fill-opacity="0.01" stroke="#FCB44B" stroke-width="0.274725"/>
<path d="M39.6975 32.1427C39.6975 34.0352 38.1119 35.5768 36.1464 35.5768C34.181 35.5768 32.5954 34.0352 32.5954 32.1427C32.5954 30.2503 34.181 28.7087 36.1464 28.7087C38.1119 28.7087 39.6975 30.2503 39.6975 32.1427Z" fill="#FCB44B" fill-opacity="0.01" stroke="#FCB44B" stroke-width="0.274725"/>
<path d="M21.5018 17.8573C21.5018 19.2238 20.3565 20.339 18.9343 20.339C17.5122 20.339 16.3669 19.2238 16.3669 17.8573C16.3669 16.4909 17.5122 15.3756 18.9343 15.3756C20.3565 15.3756 21.5018 16.4909 21.5018 17.8573Z" fill="#FCB44B" fill-opacity="0.01" stroke="#FCB44B" stroke-width="0.274725"/>
<path d="M19.0421 38.8096C19.0421 40.439 17.6766 41.7675 15.9828 41.7675C14.289 41.7675 12.9235 40.439 12.9235 38.8096C12.9235 37.1801 14.289 35.8517 15.9828 35.8517C17.6766 35.8517 19.0421 37.1801 19.0421 38.8096Z" fill="#FCB44B" fill-opacity="0.01" stroke="#FCB44B" stroke-width="0.274725"/>
<path d="M9.20711 35.9522C9.20711 37.5816 7.84163 38.91 6.14782 38.91C4.45402 38.91 3.08853 37.5816 3.08853 35.9522C3.08853 34.3227 4.45402 32.9943 6.14782 32.9943C7.84163 32.9943 9.20711 34.3227 9.20711 35.9522Z" fill="#FCB44B" fill-opacity="0.01" stroke="#FCB44B" stroke-width="0.274725"/>
<path d="M6.74796 45.2381C6.74796 45.9471 6.15312 46.5294 5.40995 46.5294C4.66677 46.5294 4.07193 45.9471 4.07193 45.2381C4.07193 44.5292 4.66677 43.9469 5.40995 43.9469C6.15312 43.9469 6.74796 44.5292 6.74796 45.2381Z" fill="#FCB44B" fill-opacity="0.01" stroke="#FCB44B" stroke-width="0.274725"/>
<path d="M10.6825 42.8573C10.6825 43.5663 10.0877 44.1485 9.34452 44.1485C8.60134 44.1485 8.0065 43.5663 8.0065 42.8573C8.0065 42.1483 8.60134 41.5661 9.34452 41.5661C10.0877 41.5661 10.6825 42.1483 10.6825 42.8573Z" fill="#FCB44B" fill-opacity="0.01" stroke="#FCB44B" stroke-width="0.274725"/>
<path d="M14.1249 45.2381C14.1249 45.9471 13.5301 46.5294 12.7869 46.5294C12.0437 46.5294 11.4489 45.9471 11.4489 45.2381C11.4489 44.5292 12.0437 43.9469 12.7869 43.9469C13.5301 43.9469 14.1249 44.5292 14.1249 45.2381Z" fill="#FCB44B" fill-opacity="0.01" stroke="#FCB44B" stroke-width="0.274725"/>
<path d="M20.6708 44.2855C20.6708 44.9945 20.076 45.5767 19.3328 45.5767C18.5896 45.5767 17.9948 44.9945 17.9948 44.2855C17.9948 43.5765 18.5896 42.9943 19.3328 42.9943C20.076 42.9943 20.6708 43.5765 20.6708 44.2855Z" fill="#FCB44B" fill-opacity="0.01" stroke="#FCB44B" stroke-width="0.274725"/>
<path d="M11.7773 46.7142C11.7773 47.4232 11.1824 48.0054 10.4392 48.0054C9.69607 48.0054 9.10123 47.4232 9.10123 46.7142C9.10123 46.0052 9.69607 45.423 10.4392 45.423C11.1824 45.423 11.7773 46.0052 11.7773 46.7142Z" fill="#FCB44B" fill-opacity="0.01" stroke="#FCB44B" stroke-width="0.274725"/>
<path d="M23.4687 37.1429C23.4687 37.8519 22.8738 38.4341 22.1306 38.4341C21.3875 38.4341 20.7926 37.8519 20.7926 37.1429C20.7926 36.434 21.3875 35.8517 22.1306 35.8517C22.8738 35.8517 23.4687 36.434 23.4687 37.1429Z" fill="#FCB44B" fill-opacity="0.01" stroke="#FCB44B" stroke-width="0.274725"/>
<path d="M29.8622 19.0477C29.8622 19.7567 29.2674 20.3389 28.5242 20.3389C27.781 20.3389 27.1862 19.7567 27.1862 19.0477C27.1862 18.3387 27.781 17.7565 28.5242 17.7565C29.2674 17.7565 29.8622 18.3387 29.8622 19.0477Z" fill="#FCB44B" fill-opacity="0.01" stroke="#FCB44B" stroke-width="0.274725"/>
<path d="M27.4032 16.1903C27.4032 16.8993 26.8084 17.4815 26.0652 17.4815C25.322 17.4815 24.7272 16.8993 24.7272 16.1903C24.7272 15.4813 25.322 14.8991 26.0652 14.8991C26.8084 14.8991 27.4032 15.4813 27.4032 16.1903Z" fill="#FCB44B" fill-opacity="0.01" stroke="#FCB44B" stroke-width="0.274725"/>
<path d="M21.9932 31.9049C21.9932 34.1918 20.0773 36.0532 17.7044 36.0532C15.3316 36.0532 13.4157 34.1918 13.4157 31.9049C13.4157 29.6179 15.3316 27.7565 17.7044 27.7565C20.0773 27.7565 21.9932 29.6179 21.9932 31.9049Z" fill="#FCB44B" fill-opacity="0.01" stroke="#FCB44B" stroke-width="0.274725"/>
<path d="M32.8126 27.1431C32.8126 29.4301 30.8966 31.2915 28.5238 31.2915C26.151 31.2915 24.235 29.4301 24.235 27.1431C24.235 24.8562 26.151 22.9948 28.5238 22.9948C30.8966 22.9948 32.8126 24.8562 32.8126 27.1431Z" fill="#FCB44B" fill-opacity="0.01" stroke="#FCB44B" stroke-width="0.274725"/>
<mask id="path-18-inside-1_207_2097" fill="white">
<path fill-rule="evenodd" clip-rule="evenodd" d="M11.2982 19.688C12.4513 19.2206 13.2615 18.1177 13.2615 16.8316C13.2615 15.1221 11.8303 13.7363 10.0648 13.7363C8.29935 13.7363 6.86816 15.1221 6.86816 16.8316C6.86816 17.1068 6.90527 17.3737 6.97492 17.6278C8.70168 17.7177 10.2391 18.4977 11.2982 19.688Z"/>
</mask>
<path fill-rule="evenodd" clip-rule="evenodd" d="M11.2982 19.688C12.4513 19.2206 13.2615 18.1177 13.2615 16.8316C13.2615 15.1221 11.8303 13.7363 10.0648 13.7363C8.29935 13.7363 6.86816 15.1221 6.86816 16.8316C6.86816 17.1068 6.90527 17.3737 6.97492 17.6278C8.70168 17.7177 10.2391 18.4977 11.2982 19.688Z" fill="#FCB44B" fill-opacity="0.01"/>
<path d="M11.2982 19.688L11.093 19.8706L11.2218 20.0154L11.4014 19.9426L11.2982 19.688ZM6.97492 17.6278L6.70997 17.7004L6.76243 17.8918L6.96062 17.9021L6.97492 17.6278ZM12.9867 16.8316C12.9867 17.9979 12.252 19.005 11.1951 19.4334L11.4014 19.9426C12.6507 19.4362 13.5362 18.2375 13.5362 16.8316H12.9867ZM10.0648 14.0111C11.687 14.0111 12.9867 15.2821 12.9867 16.8316H13.5362C13.5362 14.9621 11.9736 13.4616 10.0648 13.4616V14.0111ZM7.14289 16.8316C7.14289 15.2821 8.44266 14.0111 10.0648 14.0111V13.4616C8.15604 13.4616 6.59344 14.9621 6.59344 16.8316H7.14289ZM7.23987 17.5551C7.17664 17.3245 7.14289 17.082 7.14289 16.8316H6.59344C6.59344 17.1316 6.63391 17.4229 6.70997 17.7004L7.23987 17.5551ZM6.96062 17.9021C8.61268 17.9882 10.0818 18.7342 11.093 19.8706L11.5035 19.5054C10.3964 18.2612 8.79068 17.4473 6.98921 17.3534L6.96062 17.9021Z" fill="#FCB44B" mask="url(#path-18-inside-1_207_2097)"/>
<path d="M12.6492 23.4981C12.6492 26.837 9.85256 29.5512 6.3933 29.5512C2.93403 29.5512 0.137363 26.837 0.137363 23.4981C0.137363 20.1592 2.93403 17.445 6.3933 17.445C9.85256 17.445 12.6492 20.1592 12.6492 23.4981Z" fill="#FCB44B" fill-opacity="0.01" stroke="#FCB44B" stroke-width="0.274725"/>
<path d="M17.2129 5.47628C17.2949 4.762 17.803 3.19057 19.1801 2.61914L18.1965 5.47628H17.2129Z" stroke="#FCB44B" stroke-width="0.137363"/>
<path d="M36.2243 43.6249C35.971 44.5462 35.1584 46.5246 33.9337 47.0673L35.4577 43.4791L36.2243 43.6249Z" stroke="#FCB44B" stroke-width="0.137363"/>
</g>
<defs>
<filter id="filter0_i_207_2097" x="0" y="0" width="39.835" height="51.0989" filterUnits="userSpaceOnUse" color-interpolation-filters="sRGB">
<feFlood flood-opacity="0" result="BackgroundImageFix"/>
<feBlend mode="normal" in="SourceGraphic" in2="BackgroundImageFix" result="shape"/>
<feColorMatrix in="SourceAlpha" type="matrix" values="0 0 0 0 0 0 0 0 0 0 0 0 0 0 0 0 0 0 127 0" result="hardAlpha"/>
<feOffset dy="1.0989"/>
<feGaussianBlur stdDeviation="0.549451"/>
<feComposite in2="hardAlpha" operator="arithmetic" k2="-1" k3="1"/>
<feColorMatrix type="matrix" values="0 0 0 0 0 0 0 0 0 0 0 0 0 0 0 0 0 0 0.25 0"/>
<feBlend mode="normal" in2="shape" result="effect1_innerShadow_207_2097"/>
</filter>
</defs>
</svg>
