<svg width="9" height="9" viewBox="0 0 9 9" fill="none" xmlns="http://www.w3.org/2000/svg">
<path fill-rule="evenodd" clip-rule="evenodd" d="M4.49997 7.39482L2.30187 8.55042C2.03879 8.68873 1.7134 8.58759 1.57509 8.3245C1.52001 8.21974 1.50101 8.09975 1.52102 7.9831L1.94081 5.53549L0.162521 3.80208C-0.0503161 3.59461 -0.0546711 3.25389 0.152794 3.04105C0.235408 2.9563 0.343657 2.90114 0.460782 2.88413L2.91832 2.52702L4.01737 0.300114C4.14891 0.0335838 4.47161 -0.0758472 4.73814 0.0556936C4.84427 0.108074 4.93018 0.193981 4.98256 0.300114L6.08161 2.52702L8.53915 2.88413C8.83328 2.92687 9.03708 3.19996 8.99434 3.49409C8.97732 3.61122 8.92216 3.71946 8.83741 3.80208L7.05912 5.53549L7.47891 7.9831C7.52916 8.27604 7.33241 8.55425 7.03946 8.6045C6.92281 8.6245 6.80282 8.6055 6.69806 8.55042L4.49997 7.39482Z" fill="#FFC163"/>
</svg>
