<svg width="51" height="133" viewBox="0 0 51 133" fill="none" xmlns="http://www.w3.org/2000/svg">
<path d="M22.1858 75.0744C16.0979 72.0693 10.0922 69.0641 4.00426 66.059" stroke="#823430" stroke-width="1.86643" stroke-miterlimit="10" stroke-linecap="round" stroke-linejoin="round"/>
<path d="M20.7058 94.4157C15.0292 95.0835 9.35261 95.6679 3.67601 96.3357" stroke="#823430" stroke-width="1.86643" stroke-miterlimit="10" stroke-linecap="round" stroke-linejoin="round"/>
<path d="M39.8167 34.1988C46.7872 27.9852 50.3481 18.1823 49.2336 8.83773C48.84 5.55515 47.3865 1.89612 44.3039 1.08633C41.6876 0.396819 38.8837 2.20667 37.5756 4.69688C36.2675 7.18709 36.0979 10.0299 35.9829 12.7689C35.2562 10.3724 34.6626 7.84824 33.0638 5.97788C31.465 4.10753 28.8608 2.89096 26.5232 3.6871C24.7366 4.31611 23.5254 5.99187 23.0652 7.87604C22.6049 9.76022 22.7443 11.637 23.0652 13.546C24.7913 22.3561 31.9437 29.7824 39.8167 34.1988Z" stroke="#823430" stroke-width="1.86643" stroke-miterlimit="10" stroke-linecap="round" stroke-linejoin="round"/>
<path d="M19.8903 130.367C20.7986 123.723 18.7092 117.117 14.4699 113.343C12.9619 112.056 10.8483 111.039 8.94069 112.403C7.37823 113.487 6.7242 115.867 7.12392 117.752C7.52365 119.637 8.45629 121.011 9.57062 122.418C8.23222 121.69 7.02706 120.834 5.46459 120.784C3.90212 120.735 2.18825 121.604 1.39492 123.24C0.740879 124.485 0.837797 125.939 1.35863 127.089C1.87947 128.24 2.72126 129.031 3.61757 129.719C7.86898 132.965 14.2642 132.509 19.8903 130.367Z" stroke="#823430" stroke-width="1.86643" stroke-miterlimit="10" stroke-linecap="round" stroke-linejoin="round"/>
<path d="M24.1463 55.0948C25.2 50.0648 23.6072 44.529 20.1249 40.7001C18.8773 39.4211 17.0544 38.2293 15.4496 38.8904C14.0809 39.4799 13.4693 41.1483 13.6691 42.6579C13.869 44.1674 14.6987 45.4859 15.5284 46.8044C14.4262 46.0047 13.3785 45.1012 12.0825 44.7964C10.7865 44.4916 9.24216 44.7854 8.46094 45.8946C7.86746 46.7725 7.86745 47.9065 8.26111 48.9211C8.63054 49.8558 9.3149 50.695 10.1325 51.4066C13.7541 54.8443 19.2833 55.7844 24.1463 55.0948Z" stroke="#FF7231" stroke-width="1.86643" stroke-miterlimit="10" stroke-linecap="round" stroke-linejoin="round"/>
<path d="M39.9643 34.241C40.6305 33.6028 41.2966 32.9647 41.9386 32.2466C47.5283 26.0155 50.3867 17.298 49.3813 8.8799C48.9876 5.59732 47.5341 1.9383 44.4515 1.12851C41.8353 0.438992 39.0313 2.24884 37.7232 4.73905C36.9057 6.29543 36.5544 7.97209 36.3062 9.70475C36.2093 10.5192 36.1366 11.4135 36.1184 12.2041C36.0882 12.3878 36.0579 12.5714 36.1063 12.7312L36.0821 12.6513C35.3796 10.3347 34.786 7.81052 33.2659 5.9163C31.6671 4.04594 29.063 2.82937 26.7253 3.62551C24.9388 4.25453 23.7276 5.93028 23.2673 7.81446C22.7829 9.61874 22.9464 11.5754 23.2674 13.4844C24.939 22.3983 32.0913 29.8246 39.9643 34.241Z" fill="#FFC163"/>
<path d="M1.33335 127.104C1.85418 128.254 2.696 129.046 3.59231 129.734C7.94668 133.036 14.4206 132.556 20.0467 130.414C20.1739 129.416 20.2223 128.441 20.2708 127.467C20.2949 121.877 18.2782 116.644 14.6263 113.39C13.1183 112.103 10.926 111.11 9.09712 112.45C7.53466 113.535 6.88062 115.914 7.28035 117.799C7.57711 119.628 8.6127 121.058 9.64831 122.489C9.64831 122.489 9.54538 122.433 9.52115 122.353C8.2857 121.681 7.00179 120.849 5.54227 120.855C3.9798 120.806 2.26593 121.675 1.4726 123.311C0.794326 124.476 0.89124 125.93 1.33335 127.104Z" fill="#FFC163"/>
<path d="M8.52095 49.0243C8.89038 49.959 9.57474 50.7982 10.3923 51.5098C13.9897 54.8676 19.5189 55.8077 24.4061 55.1979C24.5273 54.4634 24.6726 53.8087 24.715 53.098C24.9995 48.6502 23.4613 44.1446 20.409 40.8832C19.1614 39.6041 17.3385 38.4123 15.7336 39.0735C14.365 39.663 13.7533 41.3314 13.9532 42.8409C14.1531 44.3505 14.9828 45.669 15.8912 46.9636C15.7882 46.9076 15.6853 46.8516 15.5581 46.7157C14.5588 45.972 13.6383 45.2044 12.421 44.8757C11.125 44.5709 9.58071 44.8648 8.79949 45.974C8.12728 46.8757 8.12729 48.0096 8.52095 49.0243Z" fill="#FFC163"/>
</svg>
