<svg width="8" height="2" viewBox="0 0 8 2" fill="none" xmlns="http://www.w3.org/2000/svg">
<path d="M5.65347 0L6.79341 0.999856L4.51352 0.999856L5.65347 0Z" fill="#FCB44B"/>
<path d="M4.33727 0L5.31437 0.999856L3.36017 0.999856L4.33727 0Z" fill="#FCB44B"/>
<path d="M2.83274 0L3.80983 0.999856L1.85564 0.999856L2.83274 0Z" fill="#FCB44B"/>
<path d="M1.13987 0L2.27981 0.999856L-7.71831e-05 0.999856L1.13987 0Z" fill="#FCB44B"/>
<path d="M6.59338 2L5.61629 1.00014L7.57048 1.00014L6.59338 2Z" fill="#FCB44B"/>
<path d="M5.08885 2L4.11175 1.00014L6.06595 1.00014L5.08885 2Z" fill="#FCB44B"/>
<path d="M3.58432 2L2.60722 1.00014L4.56141 1.00014L3.58432 2Z" fill="#FCB44B"/>
<path d="M2.08076 2L1.10367 1.00014L3.05786 1.00014L2.08076 2Z" fill="#FCB44B"/>
</svg>
