<svg width="15" height="11" viewBox="0 0 15 11" fill="none" xmlns="http://www.w3.org/2000/svg">
<g filter="url(#filter0_d_207_2084)">
<mask id="path-1-inside-1_207_2084" fill="white">
<path fill-rule="evenodd" clip-rule="evenodd" d="M6.58118 0C7.42972 0 8.15961 0.642541 8.48329 1.56392C9.01814 1.72012 9.4762 2.32484 9.75006 3.17192C9.98155 3.12879 10.2244 3.10584 10.4747 3.10584C12.0603 3.10584 13.3456 4.02655 13.3456 5.16232C13.3456 6.29808 12.0603 7.21879 10.4747 7.21879C10.1857 7.21879 9.90665 7.18819 9.64354 7.13127C9.31193 7.95446 8.79236 8.48453 8.20829 8.48453C7.73622 8.48453 7.30629 8.13827 6.98368 7.57084C6.60656 8.09176 5.94586 8.43711 5.19383 8.43711C4.26698 8.43711 3.47887 7.91253 3.18938 7.18122C3.05207 7.22994 2.90643 7.25612 2.75558 7.25612C1.92839 7.25612 1.25782 6.46867 1.25782 5.4973C1.25782 4.52592 1.92839 3.73847 2.75558 3.73847C2.98245 3.73847 3.19753 3.7977 3.39024 3.90372C3.37903 3.80343 3.37318 3.7002 3.37318 3.5948C3.37318 2.62585 3.86726 1.84036 4.47674 1.84036C4.51635 1.84036 4.55546 1.84367 4.59399 1.85014C4.85707 0.778347 5.64726 0 6.58118 0Z"/>
</mask>
<path fill-rule="evenodd" clip-rule="evenodd" d="M6.58118 0C7.42972 0 8.15961 0.642541 8.48329 1.56392C9.01814 1.72012 9.4762 2.32484 9.75006 3.17192C9.98155 3.12879 10.2244 3.10584 10.4747 3.10584C12.0603 3.10584 13.3456 4.02655 13.3456 5.16232C13.3456 6.29808 12.0603 7.21879 10.4747 7.21879C10.1857 7.21879 9.90665 7.18819 9.64354 7.13127C9.31193 7.95446 8.79236 8.48453 8.20829 8.48453C7.73622 8.48453 7.30629 8.13827 6.98368 7.57084C6.60656 8.09176 5.94586 8.43711 5.19383 8.43711C4.26698 8.43711 3.47887 7.91253 3.18938 7.18122C3.05207 7.22994 2.90643 7.25612 2.75558 7.25612C1.92839 7.25612 1.25782 6.46867 1.25782 5.4973C1.25782 4.52592 1.92839 3.73847 2.75558 3.73847C2.98245 3.73847 3.19753 3.7977 3.39024 3.90372C3.37903 3.80343 3.37318 3.7002 3.37318 3.5948C3.37318 2.62585 3.86726 1.84036 4.47674 1.84036C4.51635 1.84036 4.55546 1.84367 4.59399 1.85014C4.85707 0.778347 5.64726 0 6.58118 0Z" fill="#D9D9D9" fill-opacity="0.01" shape-rendering="crispEdges"/>
<path d="M8.48329 1.56392L7.19504 2.01649L7.42744 2.67804L8.10051 2.87461L8.48329 1.56392ZM9.75006 3.17192L8.45083 3.59195L8.82008 4.73411L10.0001 4.51426L9.75006 3.17192ZM9.64354 7.13127L9.93224 5.79671L8.80714 5.55332L8.37701 6.62107L9.64354 7.13127ZM6.98368 7.57084L8.17067 6.89597L7.12193 5.05139L5.87765 6.77014L6.98368 7.57084ZM3.18938 7.18122L4.45896 6.67866L3.97418 5.45398L2.73284 5.89437L3.18938 7.18122ZM3.39024 3.90372L2.73207 5.10006L5.03968 6.36958L4.74723 3.7521L3.39024 3.90372ZM4.59399 1.85014L4.36791 3.19673L5.61791 3.4066L5.92006 2.17563L4.59399 1.85014ZM9.77154 1.11136C9.31916 -0.176384 8.17997 -1.36543 6.58118 -1.36543V1.36543C6.67947 1.36543 7.00006 1.46147 7.19504 2.01649L9.77154 1.11136ZM11.0493 2.75189C10.7345 1.77822 10.0709 0.605109 8.86606 0.253238L8.10051 2.87461C8.01215 2.8488 8.03835 2.82092 8.13764 2.9483C8.23308 3.07073 8.3505 3.2816 8.45083 3.59195L11.0493 2.75189ZM10.0001 4.51426C10.1486 4.48661 10.3077 4.47127 10.4747 4.47127V1.7404C10.1411 1.7404 9.81454 1.77098 9.49997 1.82958L10.0001 4.51426ZM10.4747 4.47127C11.0149 4.47127 11.4471 4.63015 11.7096 4.81819C11.9745 5.00795 11.9802 5.14811 11.9802 5.16232H14.711C14.711 4.04076 14.074 3.15268 13.2999 2.59814C12.5233 2.04188 11.5201 1.7404 10.4747 1.7404V4.47127ZM11.9802 5.16232C11.9802 5.17652 11.9745 5.31668 11.7096 5.50644C11.4471 5.69448 11.0149 5.85336 10.4747 5.85336V8.58423C11.5201 8.58423 12.5233 8.28275 13.2999 7.72649C14.074 7.17195 14.711 6.28387 14.711 5.16232H11.9802ZM10.4747 5.85336C10.2818 5.85336 10.0995 5.8329 9.93224 5.79671L9.35484 8.46584C9.71377 8.54348 10.0896 8.58423 10.4747 8.58423V5.85336ZM8.20829 9.84997C9.67882 9.84997 10.5296 8.586 10.9101 7.64148L8.37701 6.62107C8.26051 6.91025 8.14132 7.06768 8.07323 7.13328C8.012 7.19227 8.05899 7.1191 8.20829 7.1191V9.84997ZM5.79668 8.24571C6.2196 8.98956 7.01258 9.84997 8.20829 9.84997V7.1191C8.26028 7.1191 8.30497 7.12914 8.33685 7.14093C8.36694 7.15206 8.37652 7.16127 8.36718 7.15416C8.34323 7.13592 8.26678 7.06501 8.17067 6.89597L5.79668 8.24571ZM5.19383 9.80254C6.35705 9.80254 7.44052 9.26827 8.0897 8.37154L5.87765 6.77014C5.7726 6.91525 5.53468 7.07168 5.19383 7.07168V9.80254ZM1.91979 7.68378C2.4387 8.99466 3.77286 9.80254 5.19383 9.80254V7.07168C4.76111 7.07168 4.51903 6.83041 4.45896 6.67866L1.91979 7.68378ZM2.75558 8.62156C3.06612 8.62156 3.36598 8.56739 3.64592 8.46807L2.73284 5.89437C2.73501 5.8936 2.73844 5.8926 2.74288 5.89182C2.74737 5.89104 2.75176 5.89069 2.75558 5.89069V8.62156ZM-0.10761 5.4973C-0.10761 7.0088 0.97677 8.62156 2.75558 8.62156V5.89069C2.79713 5.89069 2.78561 5.91387 2.73608 5.85571C2.68408 5.79465 2.62326 5.67223 2.62326 5.4973H-0.10761ZM2.75558 2.37303C0.97677 2.37303 -0.10761 3.9858 -0.10761 5.4973H2.62326C2.62326 5.32236 2.68408 5.19994 2.73608 5.13888C2.78561 5.08072 2.79713 5.1039 2.75558 5.1039V2.37303ZM4.0484 2.70738C3.6654 2.49667 3.22518 2.37303 2.75558 2.37303V5.1039C2.74943 5.1039 2.74275 5.10301 2.73697 5.10148C2.73146 5.10003 2.72979 5.0988 2.73207 5.10006L4.0484 2.70738ZM2.00775 3.5948C2.00775 3.75061 2.01639 3.90446 2.03325 4.05533L4.74723 3.7521C4.74167 3.7024 4.73862 3.64979 4.73862 3.5948H2.00775ZM4.47674 0.474922C3.53557 0.474922 2.88602 1.07808 2.54061 1.62722C2.18379 2.19449 2.00775 2.89374 2.00775 3.5948H4.73862C4.73862 3.32692 4.80961 3.14894 4.85221 3.08123C4.87178 3.05011 4.86532 3.07352 4.80911 3.11132C4.74606 3.15371 4.62999 3.20579 4.47674 3.20579V0.474922ZM4.82007 0.503554C4.7076 0.484671 4.59287 0.474922 4.47674 0.474922V3.20579C4.43982 3.20579 4.40332 3.20268 4.36791 3.19673L4.82007 0.503554ZM6.58118 -1.36543C4.81679 -1.36543 3.62673 0.0628266 3.26792 1.52465L5.92006 2.17563C5.99603 1.86614 6.13797 1.64415 6.27458 1.51487C6.40584 1.39064 6.51196 1.36543 6.58118 1.36543V-1.36543Z" fill="#FCB44B" mask="url(#path-1-inside-1_207_2084)"/>
</g>
<defs>
<filter id="filter0_d_207_2084" x="-2.99566e-05" y="0" width="14.6031" height="11.0001" filterUnits="userSpaceOnUse" color-interpolation-filters="sRGB">
<feFlood flood-opacity="0" result="BackgroundImageFix"/>
<feColorMatrix in="SourceAlpha" type="matrix" values="0 0 0 0 0 0 0 0 0 0 0 0 0 0 0 0 0 0 127 0" result="hardAlpha"/>
<feOffset dy="1.23636"/>
<feGaussianBlur stdDeviation="0.618179"/>
<feComposite in2="hardAlpha" operator="out"/>
<feColorMatrix type="matrix" values="0 0 0 0 0 0 0 0 0 0 0 0 0 0 0 0 0 0 0.25 0"/>
<feBlend mode="normal" in2="BackgroundImageFix" result="effect1_dropShadow_207_2084"/>
<feBlend mode="normal" in="SourceGraphic" in2="effect1_dropShadow_207_2084" result="shape"/>
</filter>
</defs>
</svg>
