<svg width="13" height="13" viewBox="0 0 13 13" fill="none" xmlns="http://www.w3.org/2000/svg">
<path fill-rule="evenodd" clip-rule="evenodd" d="M3.13476 1.44611C3.13476 2.24999 2.52961 2.8932 1.55805 2.8932H1.54022C0.604788 2.8932 0 2.24999 0 1.44611C0 0.625229 0.62318 0 1.57639 0C2.52961 0 3.11667 0.625229 3.13476 1.44611ZM2.95119 4.03592V12.4081H0.164761V4.03592H2.95119ZM13.0001 12.4081L13.0002 7.60773C13.0002 5.03621 11.6256 3.83934 9.79193 3.83934C8.31252 3.83934 7.65015 4.65193 7.28036 5.22198V4.03617H4.49357C4.5303 4.82176 4.49357 12.4083 4.49357 12.4083H7.28036V7.73258C7.28036 7.48236 7.29844 7.23276 7.37212 7.05361C7.57351 6.55374 8.03203 6.0362 8.80183 6.0362C9.81053 6.0362 10.2138 6.80391 10.2138 7.92895V12.4081H13.0001Z" fill="white"/>
</svg>
