<svg width="12" height="10" viewBox="0 0 12 10" fill="none" xmlns="http://www.w3.org/2000/svg">
<path d="M5.82647 2.6379L5.8525 3.06683L5.41897 3.0143C3.84098 2.81298 2.4624 2.1302 1.29186 0.98352L0.719658 0.41457L0.572256 0.834723C0.260097 1.77135 0.459509 2.76046 1.1098 3.42568C1.45662 3.79336 1.37858 3.84588 0.780344 3.62705C0.572255 3.55702 0.390146 3.50449 0.372844 3.53073C0.312158 3.59203 0.520246 4.38854 0.68495 4.7037C0.910392 5.14136 1.3699 5.57024 1.87279 5.82409L2.29765 6.02541L1.79475 6.03419C1.30922 6.03419 1.29186 6.04292 1.34392 6.22673C1.5173 6.79568 2.20225 7.3997 2.96524 7.66228L3.50284 7.84609L3.03461 8.12618C2.34098 8.52887 1.52598 8.75643 0.710981 8.77394C0.320783 8.78272 0 8.81769 0 8.84397C0 8.93152 1.05779 9.4217 1.67338 9.61425C3.52015 10.1832 5.71378 9.93813 7.36113 8.96653C8.53162 8.27502 9.70211 6.90073 10.2483 5.57024C10.5431 4.86122 10.8379 3.56575 10.8379 2.94427C10.8379 2.54163 10.8639 2.4891 11.3495 2.00769C11.6356 1.72756 11.9044 1.42118 11.9564 1.33369C12.0431 1.16739 12.0345 1.16739 11.5923 1.31618C10.8553 1.57876 10.7512 1.54374 11.1154 1.14988C11.3842 0.869741 11.705 0.362044 11.705 0.213248C11.705 0.187011 11.5749 0.230756 11.4275 0.309519C11.2715 0.397062 10.9247 0.52835 10.6645 0.607164L10.1963 0.755961L9.77147 0.467096C9.5374 0.309519 9.20789 0.134485 9.03451 0.0819595C8.5923 -0.0406002 7.91603 -0.0230914 7.51721 0.116977C6.43338 0.510893 5.74843 1.52623 5.82647 2.6379Z" fill="white"/>
</svg>
