<svg width="31" height="69" viewBox="0 0 31 69" fill="none" xmlns="http://www.w3.org/2000/svg">
<path d="M13.6159 38.8913C9.9926 37.3524 6.41826 35.8135 2.79496 34.2746" stroke="#823430" stroke-width="1.86643" stroke-miterlimit="10" stroke-linecap="round" stroke-linejoin="round"/>
<path d="M12.7351 48.7956C9.35658 49.1376 5.9781 49.4368 2.59961 49.7788" stroke="#823430" stroke-width="1.86643" stroke-miterlimit="10" stroke-linecap="round" stroke-linejoin="round"/>
<path d="M24.109 17.9586C28.2576 14.7766 30.3769 9.75658 29.7136 4.97128C29.4793 3.29028 28.6143 1.41652 26.7796 1.00183C25.2225 0.648732 23.5537 1.57555 22.7752 2.85077C21.9967 4.12599 21.8958 5.58176 21.8273 6.9844C21.3948 5.75716 21.0415 4.46456 20.09 3.50676C19.1384 2.54897 17.5885 1.92597 16.1973 2.33367C15.134 2.65578 14.4131 3.51393 14.1392 4.4788C13.8653 5.44367 13.9482 6.40478 14.1393 7.38234C15.1665 11.894 19.4233 15.6969 24.109 17.9586Z" stroke="#823430" stroke-width="1.86643" stroke-miterlimit="10" stroke-linecap="round" stroke-linejoin="round"/>
<path d="M12.2501 67.2061C12.7907 63.8041 11.5471 60.421 9.02408 58.4885C8.12659 57.8293 6.86868 57.3088 5.73332 58.007C4.80341 58.5624 4.41416 59.7807 4.65206 60.746C4.88996 61.7114 5.44503 62.4153 6.10823 63.1356C5.31167 62.7627 4.59441 62.3245 3.66449 62.2992C2.73457 62.2738 1.71455 62.7186 1.24239 63.5565C0.853129 64.1941 0.910811 64.9385 1.22079 65.5277C1.53077 66.1168 2.03177 66.5221 2.56522 66.8743C5.09549 68.5369 8.90167 68.3032 12.2501 67.2061Z" stroke="#823430" stroke-width="1.86643" stroke-miterlimit="10" stroke-linecap="round" stroke-linejoin="round"/>
<path d="M14.7829 28.6597C15.41 26.0839 14.462 23.249 12.3895 21.2883C11.647 20.6333 10.5621 20.023 9.60694 20.3615C8.79236 20.6634 8.42832 21.5178 8.54728 22.2908C8.66623 23.0638 9.16004 23.7391 9.65384 24.4143C8.99785 24.0047 8.3743 23.5421 7.60297 23.386C6.83164 23.2299 5.91253 23.3803 5.44758 23.9484C5.09436 24.3979 5.09436 24.9786 5.32865 25.4982C5.54852 25.9768 5.95582 26.4066 6.44241 26.771C8.59783 28.5314 11.8886 29.0129 14.7829 28.6597Z" stroke="#FF7231" stroke-width="1.86643" stroke-miterlimit="10" stroke-linecap="round" stroke-linejoin="round"/>
<path d="M24.1977 17.9801C24.5942 17.6533 24.9907 17.3265 25.3727 16.9588C28.6995 13.7679 30.4007 9.30372 29.8023 4.99286C29.568 3.31187 28.703 1.4381 26.8684 1.02342C25.3113 0.670319 23.6425 1.59713 22.8639 2.87236C22.3774 3.66937 22.1683 4.52797 22.0206 5.41526C21.9629 5.83234 21.9196 6.29032 21.9088 6.69517C21.8908 6.78921 21.8728 6.88326 21.9016 6.96507L21.8872 6.92417C21.4691 5.73784 21.1159 4.44524 20.2112 3.47522C19.2596 2.51742 17.7097 1.89442 16.3184 2.30212C15.2552 2.62423 14.5343 3.48238 14.2604 4.44725C13.9721 5.37122 14.0694 6.37323 14.2604 7.35079C15.2553 11.9156 19.5121 15.7185 24.1977 17.9801Z" fill="#FFC163"/>
<path d="M1.20596 65.535C1.51594 66.1242 2.01695 66.5295 2.5504 66.8817C5.14194 68.573 8.99498 68.327 12.3434 67.2299C12.4191 66.7188 12.4479 66.2199 12.4767 65.721C12.4911 62.8584 11.2908 60.1787 9.1174 58.5123C8.21991 57.8531 6.91514 57.3448 5.82664 58.0309C4.89672 58.5862 4.50747 59.8045 4.74537 60.7699C4.92199 61.7065 5.53833 62.4391 6.15468 63.1717C6.15468 63.1717 6.09342 63.143 6.079 63.1021C5.34371 62.7579 4.57958 62.3319 3.71094 62.3352C2.78101 62.3098 1.76099 62.7547 1.28883 63.5926C0.885151 64.1893 0.942831 64.9336 1.20596 65.535Z" fill="#FFC163"/>
<path d="M5.48343 25.5507C5.7033 26.0293 6.1106 26.4591 6.5972 26.8235C8.73819 28.543 12.029 29.0244 14.9377 28.7122C15.0097 28.336 15.0962 28.0007 15.1214 27.6368C15.2908 25.3591 14.3753 23.0518 12.5587 21.3817C11.8162 20.7267 10.7313 20.1164 9.77612 20.4549C8.96155 20.7568 8.59752 21.6112 8.71648 22.3842C8.83543 23.1572 9.32924 23.8324 9.8699 24.4954C9.80863 24.4668 9.74734 24.4381 9.67165 24.3685C9.07693 23.9876 8.52907 23.5945 7.80459 23.4262C7.03326 23.2701 6.11416 23.4206 5.64921 23.9886C5.24913 24.4504 5.24914 25.0311 5.48343 25.5507Z" fill="#FFC163"/>
</svg>
