<svg width="20" height="20" viewBox="0 0 20 20" fill="none" xmlns="http://www.w3.org/2000/svg">
<g opacity="0.3">
<path d="M9.73922 12.087C8.58662 12.087 7.65226 11.1526 7.65226 10C7.65226 8.84745 8.58662 7.91309 9.73922 7.91309C10.8918 7.91309 11.8262 8.84745 11.8262 10C11.8262 11.1526 10.8918 12.087 9.73922 12.087Z" fill="#001829"/>
<path d="M0.418058 11.913L0.438494 11.8965L1.81067 10.8204C1.89756 10.7517 1.96691 10.6633 2.01302 10.5626C2.05912 10.4618 2.08067 10.3516 2.07589 10.2409V9.73826C2.08024 9.62827 2.05843 9.51881 2.01225 9.41889C1.96607 9.31897 1.89683 9.23143 1.81023 9.16348L0.438494 8.08696L0.418058 8.07043C0.206505 7.8942 0.064537 7.64846 0.0175419 7.37716C-0.0294533 7.10586 0.0215855 6.82669 0.161537 6.58957L2.0185 3.37652C2.02063 3.37349 2.02252 3.37029 2.02415 3.36696C2.16485 3.13311 2.38301 2.95594 2.64074 2.86619C2.89847 2.77644 3.1795 2.77979 3.43502 2.87565L3.45023 2.8813L5.06328 3.53043C5.16509 3.5716 5.27522 3.58798 5.3846 3.57823C5.49399 3.56848 5.59949 3.53287 5.69241 3.47435C5.83502 3.38449 5.97994 3.29957 6.12719 3.21957C6.22266 3.1678 6.30463 3.09431 6.36648 3.00505C6.42833 2.91578 6.46834 2.81322 6.48328 2.70565L6.72632 0.984348L6.73154 0.953043C6.78445 0.686434 6.92752 0.446162 7.1367 0.272606C7.34589 0.0990501 7.60844 0.00278917 7.88023 0H11.5985C11.8741 0.000881968 12.1406 0.0990072 12.351 0.277089C12.5613 0.45517 12.7021 0.701782 12.7485 0.973478L12.7524 0.997826L12.9946 2.72261C13.0094 2.82987 13.0491 2.93218 13.1105 3.0214C13.1719 3.11062 13.2532 3.18428 13.3481 3.23652C13.4957 3.31606 13.6407 3.40045 13.7828 3.48957C13.8756 3.54773 13.9808 3.58307 14.0899 3.59267C14.199 3.60226 14.3087 3.58585 14.4102 3.54478L16.0246 2.89261L16.0398 2.88652C16.2957 2.79055 16.5771 2.78733 16.8351 2.87741C17.0932 2.9675 17.3114 3.14519 17.452 3.37957L17.4576 3.38913L19.3172 6.60435C19.4574 6.84171 19.5085 7.12119 19.4615 7.39281C19.4145 7.66444 19.2724 7.91048 19.0607 8.08696L19.0402 8.10348L17.6681 9.17957C17.5812 9.24831 17.5118 9.33668 17.4657 9.43743C17.4196 9.53818 17.3981 9.64844 17.4028 9.75913V10.2617C17.3985 10.3717 17.4203 10.4812 17.4665 10.5811C17.5127 10.681 17.5819 10.7686 17.6685 10.8365L19.0402 11.913L19.0607 11.9296C19.2722 12.1058 19.4142 12.3515 19.4612 12.6228C19.5082 12.8941 19.4571 13.1733 19.3172 13.4104L17.4602 16.6235C17.4581 16.6265 17.4562 16.6297 17.4546 16.633C17.3139 16.8669 17.0957 17.0441 16.838 17.1338C16.5803 17.2236 16.2992 17.2202 16.0437 17.1243L16.0285 17.1187L14.4168 16.4696C14.3149 16.4284 14.2048 16.412 14.0954 16.4218C13.986 16.4315 13.8805 16.4671 13.7876 16.5257C13.645 16.6158 13.5001 16.7007 13.3528 16.7804C13.2574 16.8322 13.1754 16.9057 13.1136 16.995C13.0517 17.0842 13.0117 17.1868 12.9968 17.2943L12.755 19.0157L12.7498 19.047C12.6968 19.314 12.5533 19.5546 12.3436 19.7282C12.1339 19.9018 11.8707 19.9978 11.5985 20H7.88023C7.60461 19.9991 7.33814 19.901 7.12776 19.7229C6.91739 19.5448 6.77661 19.2982 6.73023 19.0265L6.72632 19.0022L6.48415 17.2774C6.46906 17.1699 6.42904 17.0675 6.36728 16.9782C6.30553 16.889 6.22375 16.8155 6.12849 16.7635C5.9798 16.6835 5.83458 16.5987 5.69371 16.5104C5.60096 16.4523 5.49572 16.4169 5.38666 16.4073C5.2776 16.3977 5.16781 16.4141 5.06632 16.4552L3.45197 17.1052L3.43676 17.1113C3.18089 17.2074 2.89939 17.2108 2.64133 17.1207C2.38327 17.0306 2.16501 16.8528 2.02458 16.6183C2.02286 16.615 2.02097 16.6118 2.01893 16.6087L0.161972 13.3961C0.0215569 13.1588 -0.029789 12.8792 0.0171337 12.6074C0.0640583 12.3357 0.206182 12.0895 0.418058 11.913ZM6.26502 10.1635C6.29668 10.8368 6.52329 11.4864 6.91728 12.0333C7.31128 12.5802 7.8557 13.0008 8.48432 13.244C9.11295 13.4872 9.7987 13.5426 10.4582 13.4033C11.1177 13.264 11.7225 12.9361 12.1991 12.4594C12.6757 11.9828 13.0035 11.3779 13.1427 10.7184C13.2819 10.0589 13.2265 9.37319 12.9832 8.74459C12.7399 8.116 12.3192 7.57163 11.7723 7.1777C11.2253 6.78376 10.5757 6.55723 9.90241 6.52565C9.41903 6.50437 8.93652 6.5839 8.48555 6.7592C8.03458 6.93449 7.62502 7.20171 7.28291 7.54386C6.9408 7.88601 6.67363 8.2956 6.49839 8.74659C6.32315 9.19758 6.24368 9.68011 6.26502 10.1635Z" fill="#001829"/>
</g>
</svg>
