<svg width="13" height="10" viewBox="0 0 13 10" fill="none" xmlns="http://www.w3.org/2000/svg">
<path d="M12.7285 1.45907C12.579 0.884725 12.1385 0.432409 11.5791 0.278946C10.5654 9.08054e-08 6.5001 0 6.5001 0C6.5001 0 2.43479 9.08054e-08 1.42098 0.278946C0.861619 0.432409 0.421084 0.884725 0.271582 1.45907C-2.11879e-07 2.5 0 4.67195 0 4.67195C0 4.67195 -2.11879e-07 6.8438 0.271582 7.88478C0.421084 8.45912 0.861619 8.91144 1.42098 9.065C2.43479 9.3439 6.5001 9.3439 6.5001 9.3439C6.5001 9.3439 10.5654 9.3439 11.5791 9.065C12.1385 8.91144 12.579 8.45912 12.7285 7.88478C13.0002 6.8438 13.0002 4.67195 13.0002 4.67195C13.0002 4.67195 13.0002 2.5 12.7285 1.45907Z" fill="white"/>
</svg>
