<svg width="39" height="34" viewBox="0 0 39 34" fill="none" xmlns="http://www.w3.org/2000/svg">
<g filter="url(#filter0_d_207_2076)">
<mask id="path-1-inside-1_207_2076" fill="white">
<path fill-rule="evenodd" clip-rule="evenodd" d="M26.172 6.17065C24.9036 2.47858 22.5563 0 19.8703 0C17.73 0 15.8048 1.57377 14.4691 4.08122C13.7699 2.60273 12.8105 1.69053 11.752 1.69053C9.61252 1.69053 7.87815 5.41688 7.87815 10.0136C7.87815 10.0982 7.87874 10.1826 7.87991 10.2666C7.43963 10.0768 6.97639 9.97553 6.49825 9.97553C3.59457 9.97553 1.24068 13.7112 1.24068 18.3193C1.24068 22.9275 3.59457 26.6631 6.49825 26.6631C7.073 26.6631 7.62621 26.5168 8.14389 26.2462C9.30584 29.3533 11.9171 31.5188 14.9521 31.5188C17.2136 31.5188 19.2399 30.3164 20.6065 28.418C21.7289 29.973 23.1256 30.8949 24.6395 30.8949C27.1355 30.8949 29.313 28.3888 30.4679 24.671C34.3998 23.6222 37.3076 19.8902 37.3076 15.4471C37.3076 10.1904 33.2373 5.92903 28.2164 5.92903C27.5134 5.92903 26.8291 6.01256 26.172 6.17065Z"/>
</mask>
<path fill-rule="evenodd" clip-rule="evenodd" d="M26.172 6.17065C24.9036 2.47858 22.5563 0 19.8703 0C17.73 0 15.8048 1.57377 14.4691 4.08122C13.7699 2.60273 12.8105 1.69053 11.752 1.69053C9.61252 1.69053 7.87815 5.41688 7.87815 10.0136C7.87815 10.0982 7.87874 10.1826 7.87991 10.2666C7.43963 10.0768 6.97639 9.97553 6.49825 9.97553C3.59457 9.97553 1.24068 13.7112 1.24068 18.3193C1.24068 22.9275 3.59457 26.6631 6.49825 26.6631C7.073 26.6631 7.62621 26.5168 8.14389 26.2462C9.30584 29.3533 11.9171 31.5188 14.9521 31.5188C17.2136 31.5188 19.2399 30.3164 20.6065 28.418C21.7289 29.973 23.1256 30.8949 24.6395 30.8949C27.1355 30.8949 29.313 28.3888 30.4679 24.671C34.3998 23.6222 37.3076 19.8902 37.3076 15.4471C37.3076 10.1904 33.2373 5.92903 28.2164 5.92903C27.5134 5.92903 26.8291 6.01256 26.172 6.17065Z" fill="#D9D9D9" fill-opacity="0.1" shape-rendering="crispEdges"/>
<path d="M26.172 6.17065L24.8983 6.60826L25.2962 7.76658L26.487 7.4801L26.172 6.17065ZM14.4691 4.08122L13.2516 4.65702L14.3975 7.0802L15.6578 4.71443L14.4691 4.08122ZM7.87991 10.2666L7.34672 11.5034L9.25549 12.3263L9.2266 10.2479L7.87991 10.2666ZM8.14389 26.2462L9.40539 25.7745L8.87135 24.3465L7.52013 25.0526L8.14389 26.2462ZM20.6065 28.418L21.6985 27.6298L20.605 26.1148L19.5134 27.6312L20.6065 28.418ZM30.4679 24.671L30.1208 23.3697L29.4023 23.5613L29.1817 24.2715L30.4679 24.671ZM27.4458 5.73303C26.1222 1.88066 23.4526 -1.34682 19.8703 -1.34682V1.34682C21.6599 1.34682 23.6849 3.07651 24.8983 6.60826L27.4458 5.73303ZM19.8703 -1.34682C17.0123 -1.34682 14.7243 0.737489 13.2804 3.44801L15.6578 4.71443C16.8853 2.41004 18.4478 1.34682 19.8703 1.34682V-1.34682ZM15.6866 3.50542C14.9362 1.91872 13.6385 0.343715 11.752 0.343715V3.03735C11.9825 3.03735 12.6035 3.28675 13.2516 4.65702L15.6866 3.50542ZM11.752 0.343715C9.84627 0.343715 8.54136 1.94936 7.79173 3.55998C6.99063 5.28115 6.53133 7.56425 6.53133 10.0136H9.22497C9.22497 7.86619 9.63285 5.98777 10.2338 4.69661C10.8862 3.29488 11.5182 3.03735 11.752 3.03735V0.343715ZM6.53133 10.0136C6.53133 10.1045 6.53196 10.1951 6.53322 10.2854L9.2266 10.2479C9.22551 10.1701 9.22497 10.092 9.22497 10.0136H6.53133ZM8.4131 9.02985C7.81478 8.77192 7.1707 8.62871 6.49825 8.62871V11.3224C6.78209 11.3224 7.06448 11.3817 7.34672 11.5034L8.4131 9.02985ZM6.49825 8.62871C4.4198 8.62871 2.73679 9.96253 1.64111 11.7014C0.534354 13.4578 -0.106143 15.8012 -0.106143 18.3193H2.58749C2.58749 16.2293 3.12395 14.4008 3.92005 13.1374C4.72725 11.8564 5.67302 11.3224 6.49825 11.3224V8.62871ZM-0.106143 18.3193C-0.106143 20.8375 0.534354 23.1809 1.64111 24.9373C2.73679 26.6761 4.4198 28.0099 6.49825 28.0099V25.3163C5.67302 25.3163 4.72725 24.7823 3.92005 23.5013C3.12395 22.2379 2.58749 20.4093 2.58749 18.3193H-0.106143ZM6.49825 28.0099C7.30834 28.0099 8.07416 27.8023 8.76766 27.4399L7.52013 25.0526C7.17826 25.2312 6.83767 25.3163 6.49825 25.3163V28.0099ZM6.8824 26.718C8.19165 30.219 11.226 32.8656 14.9521 32.8656V30.172C12.6082 30.172 10.42 28.4876 9.40539 25.7745L6.8824 26.718ZM14.9521 32.8656C17.7193 32.8656 20.1253 31.3916 21.6995 29.2049L19.5134 27.6312C18.3544 29.2412 16.708 30.172 14.9521 30.172V32.8656ZM19.5144 29.2063C20.7795 30.9588 22.5335 32.2417 24.6395 32.2417V29.5481C23.7177 29.5481 22.6784 28.9873 21.6985 27.6298L19.5144 29.2063ZM24.6395 32.2417C26.3716 32.2417 27.8758 31.3671 29.0492 30.0874C30.2194 28.8114 31.1353 27.0625 31.7541 25.0705L29.1817 24.2715C28.6456 25.9974 27.8953 27.3604 27.064 28.2669C26.236 29.1697 25.4034 29.5481 24.6395 29.5481V32.2417ZM35.9608 15.4471C35.9608 19.3029 33.4413 22.4839 30.1208 23.3697L30.815 25.9723C35.3583 24.7604 38.6545 20.4774 38.6545 15.4471H35.9608ZM28.2164 7.27585C32.436 7.27585 35.9608 10.8753 35.9608 15.4471H38.6545C38.6545 9.50549 34.0387 4.58222 28.2164 4.58222V7.27585ZM26.487 7.4801C27.042 7.3466 27.6206 7.27585 28.2164 7.27585V4.58222C27.4063 4.58222 26.6163 4.67852 25.857 4.86119L26.487 7.4801Z" fill="#FCB44B" mask="url(#path-1-inside-1_207_2076)"/>
</g>
<defs>
<filter id="filter0_d_207_2076" x="-2.95482e-05" y="0" width="38.5482" height="34.0001" filterUnits="userSpaceOnUse" color-interpolation-filters="sRGB">
<feFlood flood-opacity="0" result="BackgroundImageFix"/>
<feColorMatrix in="SourceAlpha" type="matrix" values="0 0 0 0 0 0 0 0 0 0 0 0 0 0 0 0 0 0 127 0" result="hardAlpha"/>
<feOffset dy="1.23636"/>
<feGaussianBlur stdDeviation="0.618179"/>
<feComposite in2="hardAlpha" operator="out"/>
<feColorMatrix type="matrix" values="0 0 0 0 0 0 0 0 0 0 0 0 0 0 0 0 0 0 0.25 0"/>
<feBlend mode="normal" in2="BackgroundImageFix" result="effect1_dropShadow_207_2076"/>
<feBlend mode="normal" in="SourceGraphic" in2="effect1_dropShadow_207_2076" result="shape"/>
</filter>
</defs>
</svg>
