<svg width="24" height="26" viewBox="0 0 24 26" fill="none" xmlns="http://www.w3.org/2000/svg">
<path d="M14.7653 20.5268C14.7891 20.5268 14.7891 20.5268 14.8129 20.5268C16.2908 20.5268 19.771 19.621 20.939 19.0965C22.7506 18.2861 23.7756 15.9501 23.7756 14.6629C23.7756 13.6379 23.6326 11.9693 21.964 9.77631C21.2012 8.75132 19.1989 7.48796 18.6268 6.43914C18.0548 5.41415 18.1263 4.31765 17.8641 3.34033C18.6268 3.07813 20.5338 0.265365 19.771 0.265365H12.6199C11.881 0.265365 12.7153 2.05313 14.0025 3.60254C13.5734 4.79438 13.5019 5.55716 12.8583 6.70134C12.0478 8.13155 10.4746 8.94201 9.64032 10.0147C8.51998 11.4687 8.09092 13.5902 8.09092 14.4007C8.09092 14.7105 8.13859 15.0443 8.2101 15.4018C8.56766 15.4257 8.90137 15.4972 9.18741 15.6402C9.78333 15.9501 12.7391 17.2134 14.6461 18.2146C15.2658 18.5483 15.5042 19.3349 15.1943 19.9547C15.1228 20.0262 14.9798 20.2646 14.7653 20.5268ZM16.1716 18.2384C13.6688 18.3338 11.5711 16.3791 11.4758 13.8762C11.3804 11.3734 13.335 9.27573 15.8379 9.18038C18.3408 9.08504 20.4385 11.0397 20.5338 13.5425C20.6053 16.0693 18.6507 18.1669 16.1716 18.2384Z" fill="#8BD9F2"/>
<path d="M15.8383 11.7066C15.6476 11.7066 15.4808 11.5397 15.4808 11.349V10.6339C15.4808 10.4432 15.6476 10.2764 15.8383 10.2764C16.029 10.2764 16.1959 10.4432 16.1959 10.6339V11.349C16.1959 11.5397 16.029 11.7066 15.8383 11.7066Z" fill="#8BD9F2"/>
<path d="M15.8403 17.1896C15.6496 17.1896 15.4827 17.0228 15.4827 16.8321V16.117C15.4827 15.9263 15.6496 15.7594 15.8403 15.7594C16.031 15.7594 16.1978 15.9263 16.1978 16.117V16.8321C16.1978 17.0228 16.031 17.1896 15.8403 17.1896Z" fill="#8BD9F2"/>
<path d="M15.8376 16.2865C14.9795 16.2865 14.4074 15.7144 14.2406 15.5237C14.1214 15.3807 14.1214 15.1423 14.2882 15.0231C14.4313 14.9039 14.6696 14.9039 14.7888 15.0708C14.8603 15.1661 15.2656 15.5952 15.8376 15.5952C15.8615 15.5952 15.8615 15.5952 15.8853 15.5952C16.1952 15.5952 16.7196 15.4522 16.8388 15.0946C16.9103 14.8801 16.8626 14.5702 16.6958 14.3557C16.4812 14.0935 16.1714 14.0458 15.8138 13.9743C15.3609 13.9028 14.8603 13.8074 14.5504 13.3307C14.2882 12.9493 14.2406 12.4011 14.4313 11.972C14.7173 11.3284 15.4801 11.1139 16.0522 11.1615C16.7435 11.2331 17.1725 11.7098 17.3155 11.9005C17.4347 12.0673 17.4109 12.2819 17.244 12.4011C17.0772 12.5203 16.8626 12.4964 16.7435 12.3295C16.6719 12.2342 16.4097 11.9243 15.9807 11.8767C15.6469 11.8528 15.194 11.972 15.0749 12.258C14.9795 12.4487 15.0034 12.7348 15.1464 12.9255C15.2894 13.14 15.5516 13.1877 15.933 13.2592C16.3621 13.3307 16.8865 13.4261 17.2679 13.9028C17.6016 14.308 17.6969 14.8801 17.5301 15.333C17.2679 16.0004 16.5051 16.2626 15.933 16.2865C15.8853 16.2865 15.8615 16.2865 15.8376 16.2865Z" fill="#8BD9F2"/>
<path d="M17.9843 3.83951C17.8889 3.83951 17.7698 3.79184 17.6983 3.69649C17.5791 3.52964 17.6029 3.31509 17.7698 3.19591L17.8651 3.1244C18.175 2.88603 18.6517 2.50464 18.9616 2.00406C19.1285 1.74186 19.2477 1.33663 19.3668 0.740709H13.932C13.7413 0.740709 13.5745 0.57385 13.5745 0.383155C13.5745 0.19246 13.7413 0.0256011 13.932 0.0256011H19.7721C19.8674 0.0256011 19.9628 0.0732749 20.0343 0.144786C20.1058 0.216297 20.1296 0.335484 20.1296 0.430832C20.0104 1.33664 19.8197 1.95639 19.5575 2.36162C19.1761 2.98138 18.6517 3.38661 18.2942 3.67265L18.1988 3.74416C18.1273 3.79183 18.0558 3.83951 17.9843 3.83951Z" fill="#221F48"/>
<path d="M14.1233 3.79266C14.0518 3.79266 13.9565 3.76883 13.9088 3.72116L13.8134 3.64965C13.4559 3.38744 12.9315 2.95838 12.5501 2.33862C12.2879 1.93339 12.121 1.28978 11.978 0.407815C11.9541 0.21712 12.0972 0.0264361 12.2879 0.00259919C12.4786 -0.0212377 12.6693 0.121781 12.6931 0.312476C12.8123 1.0991 12.9553 1.67118 13.1698 1.98106C13.4797 2.48164 13.9565 2.86303 14.2663 3.1014L14.3617 3.17291C14.5285 3.29209 14.5524 3.53046 14.4332 3.67348C14.3378 3.74499 14.2187 3.79266 14.1233 3.79266Z" fill="#221F48"/>
<path d="M20.1282 19.8121C19.9852 19.8121 19.8422 19.7168 19.7945 19.5499C19.7468 19.3592 19.8422 19.1685 20.0329 19.097C20.9625 18.8348 21.6776 18.3342 22.3212 17.5476C23.37 16.2366 23.4892 14.0913 23.084 12.6611C22.4881 10.6349 21.0579 9.25238 19.58 8.06053C18.3404 7.03554 17.6253 5.58149 17.6253 4.05593V3.48384C17.6253 3.29314 17.7922 3.12628 17.9829 3.12628C18.1736 3.12628 18.3404 3.29314 18.3404 3.48384V4.05593C18.3404 5.36696 18.9602 6.63032 20.0329 7.51228C21.5823 8.77564 23.1317 10.2774 23.7514 12.4704C24.2043 14.0198 24.109 16.4273 22.8695 18.0005C22.1544 18.9063 21.2962 19.4784 20.2236 19.7883C20.1997 19.8121 20.1521 19.8121 20.1282 19.8121Z" fill="#221F48"/>
<path d="M8.23382 14.1399H8.20998C8.01929 14.116 7.87626 13.9492 7.87626 13.7585C7.92394 13.3056 7.99545 12.8765 8.11463 12.4713C8.75823 10.2544 10.26 8.77655 11.8094 7.51319C12.8582 6.65506 13.5018 4.77193 13.5018 3.43706C13.5018 3.24637 13.6686 3.07951 13.8593 3.07951C14.05 3.07951 14.2169 3.24637 14.2169 3.43706C14.2169 4.89112 13.5256 7.01261 12.2623 8.06144C10.8082 9.25328 9.37799 10.6597 8.80591 12.662C8.71056 13.0195 8.63904 13.4009 8.59137 13.8061C8.59137 13.9968 8.42451 14.1399 8.23382 14.1399Z" fill="#221F48"/>
<path d="M17.7449 3.84139H14.1693C13.9786 3.84139 13.8118 3.67453 13.8118 3.48384C13.8118 3.29314 13.9786 3.12628 14.1693 3.12628H17.7449C17.9356 3.12628 18.1024 3.29314 18.1024 3.48384C18.1024 3.67453 17.9356 3.84139 17.7449 3.84139Z" fill="#221F48"/>
<path d="M17.7444 5.26816H15.599C15.4083 5.26816 15.2415 5.1013 15.2415 4.9106C15.2415 4.71991 15.4083 4.55305 15.599 4.55305H17.7444C17.9351 4.55305 18.1019 4.71991 18.1019 4.9106C18.1019 5.1013 17.9351 5.26816 17.7444 5.26816Z" fill="#221F48"/>
<path d="M21.6793 19.6672C21.6555 19.6672 21.6317 19.6434 21.584 19.6434C20.9642 20.0009 19.8677 20.3823 18.9143 20.8829C17.3172 21.7172 15.6724 22.8137 15.3626 22.9329C14.8143 23.1474 14.1707 23.2904 11.7393 22.7422C9.42715 22.2178 7.63939 21.7649 6.66207 21.8126C6.20917 21.8364 4.75511 22.0033 3.5871 22.1701L3.84932 23.5765C3.84932 23.5765 6.11382 23.2666 6.90044 23.2428C7.85392 23.1951 9.66552 23.648 11.9777 24.1724C14.4091 24.7207 15.0527 24.5776 15.6009 24.3631C15.9346 24.2439 17.5556 23.1474 19.1526 22.3131C20.4875 21.6219 22.1084 21.1213 22.2753 20.6684C22.466 20.1916 22.1084 19.8103 21.6793 19.6672Z" fill="#FF7678"/>
<path d="M1.77445 25.2937C1.63143 25.2937 1.4884 25.1983 1.44073 25.0553C1.39305 24.8646 1.4884 24.6739 1.6791 24.6024L3.4192 24.0541L1.96514 17.5228L0.439588 17.9042C0.248893 17.9519 0.0581857 17.8327 0.0105118 17.642C-0.037162 17.4513 0.0820314 17.2606 0.272727 17.2129L2.15584 16.7362C2.25118 16.7124 2.34653 16.7362 2.44188 16.7839C2.51339 16.8315 2.58491 16.9269 2.60874 17.0222L4.20582 24.2448C4.25349 24.4355 4.13431 24.6024 3.96745 24.6739L1.91747 25.3175C1.84596 25.2936 1.79829 25.2937 1.77445 25.2937Z" fill="#221F48"/>
<path d="M14.1474 20.9545C14.0521 20.9545 13.9567 20.9545 13.8614 20.9307C13.6707 20.883 13.5515 20.7161 13.5753 20.5016C13.623 20.3109 13.7898 20.1917 14.0044 20.2156C14.5526 20.3109 14.8148 19.8342 14.8625 19.7865C15.1009 19.3336 14.934 18.7615 14.4811 18.547C13.1701 17.8557 11.3823 17.0452 10.1905 16.497C9.64222 16.2348 9.23699 16.0679 9.0463 15.9726C8.23584 15.5674 6.94865 15.758 5.80448 16.4255C5.61378 16.5447 5.47075 16.64 5.3039 16.7354C4.6603 17.1406 4.08821 17.4982 2.87253 17.8795C2.68183 17.9272 2.49114 17.8319 2.41963 17.6412C2.37196 17.4505 2.46731 17.2598 2.658 17.1883C3.77834 16.8307 4.32659 16.497 4.92251 16.1156C5.08937 16.0203 5.25622 15.9011 5.42308 15.8057C6.78179 14.9953 8.30736 14.8046 9.33234 15.3051C9.52304 15.4005 9.92827 15.5912 10.4527 15.8296C11.6445 16.3778 13.4561 17.1883 14.791 17.9034C15.6014 18.3324 15.9113 19.3097 15.4823 20.1202C15.2439 20.5493 14.7672 20.9545 14.1474 20.9545Z" fill="#221F48"/>
<path d="M14.5523 24.9381C13.9803 24.9381 13.1698 24.8428 11.9065 24.5329L11.0483 24.3422C9.18905 23.9131 7.73499 23.5794 6.94838 23.6271C6.18559 23.6509 3.94492 23.9608 3.92108 23.9608C3.73039 23.9846 3.53969 23.8416 3.51585 23.6509C3.49201 23.4602 3.63503 23.2695 3.82573 23.2457C3.92108 23.2219 6.11408 22.9358 6.9007 22.912C7.78266 22.8881 9.28439 23.2218 11.1913 23.6509L12.0495 23.8416C14.5523 24.4137 15.0529 24.1992 15.482 24.0561C15.5773 24.0085 15.9826 23.7701 16.4116 23.5079C17.1029 23.0788 18.0564 22.5067 19.0099 22.0062C19.4866 21.7678 20.011 21.5294 20.4639 21.3387C21.0598 21.0765 21.8703 20.719 21.9656 20.5521C21.9895 20.4806 21.9895 20.3852 21.9656 20.3137C21.918 20.1945 21.7511 20.0754 21.5842 20.0277C20.3209 19.5748 19.0337 20.0039 17.6988 20.4568C16.2686 20.9335 14.7907 21.4341 13.3367 20.7666L10.5239 19.6463C10.3332 19.5748 10.2617 19.3603 10.3332 19.1696C10.4047 18.9789 10.6193 18.9074 10.81 18.9789L13.6227 20.123C14.8384 20.6713 16.1256 20.2422 17.4843 19.7893C18.8907 19.3126 20.3209 18.8358 21.8226 19.3603C22.1802 19.4794 22.4662 19.7178 22.6092 20.0277C22.7284 20.2661 22.7284 20.5521 22.6331 20.8143C22.4901 21.2434 21.8703 21.5294 20.7499 22.0062C20.2732 22.2207 19.7965 22.4114 19.3436 22.6498C18.4139 23.1265 17.4605 23.6986 16.793 24.1276C16.1971 24.4852 15.9111 24.6521 15.768 24.7236C15.4343 24.8428 15.1006 24.9381 14.5523 24.9381Z" fill="#221F48"/>
</svg>
