<svg width="16" height="16" viewBox="0 0 16 16" fill="none" xmlns="http://www.w3.org/2000/svg">
<g clip-path="url(#clip0_207_1968)">
<path d="M7.32336 16C8.53076 16 9.54077 15.1393 9.77271 14H4.87402C5.10608 15.1393 6.11609 16 7.32336 16Z" fill="#1D1B31"/>
<path d="M11.998 7.99805C11.9953 7.99805 11.9926 7.99866 11.9899 7.99866C9.41728 7.99866 7.32329 5.90527 7.32329 3.33203C7.32329 2.62463 7.48601 1.95593 7.76934 1.35461C7.62261 1.3407 7.47393 1.33203 7.32329 1.33203C4.74602 1.33203 2.65667 3.42126 2.65667 5.99866V7.8573C2.65667 9.17664 2.07866 10.422 1.06462 11.2793C0.726611 11.568 0.576587 12.028 0.697925 12.4767C0.839282 12.9987 1.35527 13.332 1.89666 13.332H12.7466C13.3146 13.332 13.85 12.964 13.9653 12.4073C14.0546 11.9767 13.9013 11.5466 13.5673 11.266C12.5979 10.4534 12.0373 9.25928 11.998 7.99805Z" fill="#1D1B31"/>
<path d="M15.3229 3.33337C15.3229 5.17432 13.8306 6.66663 11.9895 6.66663C10.1486 6.66663 8.65625 5.17432 8.65625 3.33337C8.65625 1.49243 10.1486 0 11.9895 0C13.8306 0 15.3229 1.49243 15.3229 3.33337Z" fill="#F03243"/>
</g>
<defs>
<clipPath id="clip0_207_1968">
<rect width="16" height="16" fill="white"/>
</clipPath>
</defs>
</svg>
