<svg width="185" height="162" viewBox="0 0 185 162" fill="none" xmlns="http://www.w3.org/2000/svg">
<path d="M160.69 119.48C160.521 119.48 160.184 119.311 160.015 119.311C155.46 122.011 147.362 124.879 140.276 128.591C128.298 134.833 116.319 142.931 113.788 143.943C109.739 145.63 105.015 146.643 86.7946 142.594C69.7548 138.713 56.2579 135.339 49.172 135.676C45.7978 135.845 35.0003 137.195 26.396 138.376L28.2518 148.836C28.2518 148.836 45.1229 146.643 50.8591 146.305C57.945 145.968 71.4419 149.342 88.4817 153.222C106.703 157.271 111.258 156.259 115.475 154.572C117.837 153.56 129.985 145.462 141.963 139.219C151.917 133.989 163.896 130.446 165.077 126.903C166.595 123.36 163.896 120.492 160.69 119.48Z" fill="#FFC163"/>
<path d="M12.8965 161.167C11.8842 161.167 10.8719 160.492 10.5345 159.48C10.1971 158.13 10.8719 156.78 12.2216 156.274L25.3811 152.057L14.5836 103.299L3.11121 106.167C1.76152 106.505 0.411825 105.661 0.074403 104.311C-0.263019 102.962 0.580547 101.612 1.93024 101.275L15.9333 97.7316C16.6081 97.5629 17.283 97.7316 17.9578 98.069C18.4639 98.4064 18.9701 99.0812 19.1388 99.7561L31.1173 153.406C31.4547 154.756 30.6111 155.937 29.4302 156.443L14.0774 161.336C13.4026 161.167 13.0652 161.167 12.8965 161.167Z" fill="#1C2947"/>
<path d="M104.839 128.931C104.165 128.931 103.49 128.931 102.815 128.763C101.465 128.425 100.622 127.244 100.79 125.726C101.128 124.376 102.309 123.533 103.827 123.701C108.045 124.545 110.069 120.833 110.238 120.496C111.082 118.809 111.25 116.953 110.744 115.097C110.238 113.241 108.888 111.892 107.37 111.048C97.5848 105.987 84.2566 99.913 75.4837 95.8639C71.4346 94.0081 68.3978 92.6585 66.8794 91.9836C60.8058 88.9468 51.1893 90.2965 42.7537 95.3578C41.404 96.2014 40.223 96.8762 39.0421 97.7198C34.1494 100.757 29.9317 103.456 20.99 106.324C19.6403 106.661 18.2906 105.987 17.7844 104.637C17.447 103.287 18.1219 101.938 19.4716 101.431C27.9071 98.732 31.7875 96.3701 36.3427 93.3333C37.5236 92.6584 38.7046 91.8149 40.223 90.9713C50.177 84.8977 61.6493 83.548 69.2413 87.2597C70.591 87.9345 73.6278 89.2842 77.6769 91.1401C86.6186 95.1891 100.115 101.263 109.901 106.493C112.769 108.011 114.793 110.542 115.806 113.579C116.818 116.615 116.48 119.99 114.962 122.858C112.938 126.063 109.226 128.931 104.839 128.931Z" fill="#1C2947"/>
<path d="M107.878 158.453C103.66 158.453 97.7554 157.61 88.1388 155.585L81.5591 154.067C67.7248 150.861 56.9273 148.331 51.0224 148.668C45.2862 148.837 28.7525 151.199 28.5838 151.199C27.2341 151.367 25.8844 150.355 25.7157 149.005C25.547 147.656 26.5593 146.306 27.9089 146.137C28.5838 145.969 44.9488 143.775 50.8537 143.607C57.4334 143.269 68.5683 145.969 82.7401 149.174L89.1511 150.693C107.709 154.91 111.59 153.392 114.626 152.211C115.47 151.874 118.338 150.018 121.544 148.162C126.774 144.956 133.86 140.739 140.945 137.027C144.488 135.171 148.369 133.484 151.743 131.966C156.129 130.11 162.203 127.41 163.047 126.061C163.215 125.386 163.215 124.88 163.047 124.205C162.54 123.193 161.528 122.349 160.178 122.012C150.731 118.637 141.283 121.843 131.16 125.217C120.531 128.76 109.565 132.472 98.7676 127.41L78.0161 118.975C76.6665 118.469 76.1603 116.95 76.6665 115.601C77.1726 114.251 78.691 113.745 80.0407 114.251L100.961 122.687C110.071 126.904 119.688 123.699 129.81 120.325C140.102 116.95 150.899 113.239 162.034 117.119C164.734 117.963 166.758 119.818 167.939 122.012C168.783 123.867 168.951 125.723 168.277 127.748C167.096 130.953 162.709 132.978 154.274 136.69C150.731 138.208 147.188 139.726 143.813 141.582C136.896 145.125 129.81 149.512 124.749 152.548C120.363 155.248 118.169 156.597 116.988 156.935C114.289 157.778 111.927 158.453 107.878 158.453Z" fill="#1C2947"/>
<path d="M79.5382 72.5834C87.2989 79.5005 96.9155 85.9115 107.882 91.3103C143.142 73.5956 163.725 47.4454 154.783 22.6449C153.94 20.1142 152.759 17.921 151.24 15.8964C139.262 7.46088 122.053 8.64185 114.968 19.9455C105.182 4.25536 75.8266 8.13569 67.8971 29.7307C62.6671 44.2399 67.5597 59.2552 79.5382 72.5834Z" fill="#FF5B5E"/>
<path d="M56.5935 67.0129C55.7499 67.0129 55.0751 66.6754 54.569 66.0006C43.7714 50.4792 41.072 33.9455 46.8082 18.4241C49.3389 11.6756 53.5567 5.43333 59.2929 0.709416C60.3051 -0.13414 61.9922 0.03454 62.8358 1.04681C63.6793 2.05907 63.5106 3.7462 62.4984 4.58975C57.6057 8.80753 53.7254 14.0376 51.5321 20.1112C46.4708 34.1142 49.0015 48.9608 58.7867 63.1325C59.6303 64.3135 59.2929 65.8319 58.1119 66.6755C57.6058 66.8442 57.0996 67.0129 56.5935 67.0129Z" fill="#FF5B5E"/>
<path d="M39.8914 62.4564C38.8791 62.4564 38.0356 61.9502 37.5294 60.938C30.2749 45.754 29.4313 29.7264 34.8301 14.5424C36.3485 10.3246 38.373 6.44428 40.9037 2.73263C41.7472 1.55165 43.2656 1.38295 44.4466 2.0578C45.6276 2.90135 45.7963 4.41976 45.1214 5.60074C42.7595 8.97496 40.9037 12.5179 39.554 16.2295C34.4927 30.2325 35.3362 44.573 42.0847 58.7448C42.7595 59.9257 42.0846 61.4441 40.9037 62.119C40.5662 62.4564 40.2288 62.4564 39.8914 62.4564Z" fill="#FF5B5E"/>
<path d="M108.554 93.8401C108.217 93.8401 107.711 93.6714 107.373 93.5027C68.2325 73.9322 49.5055 46.4323 58.4472 21.8005C62.665 10.3281 72.9563 2.56737 85.6097 1.21768C94.8888 0.205412 103.324 3.24222 108.554 8.9784C113.784 3.07351 122.051 0.205412 131.162 1.21768C143.478 2.56737 153.769 10.4968 157.987 21.8005C166.928 46.601 148.539 74.1009 109.735 93.5027C109.229 93.6714 108.892 93.8401 108.554 93.8401ZM88.9839 6.27901C87.9716 6.27901 87.1281 6.27902 86.1158 6.44774C77.849 7.29129 67.3889 12.3526 63.3398 23.825C55.4104 45.5887 72.7876 70.3893 108.554 88.6101C143.984 70.558 161.024 45.7574 153.094 23.825C148.876 12.3526 138.754 7.29129 130.487 6.44774C122.051 5.60418 114.459 8.80968 110.579 14.7146C110.073 15.3894 109.229 15.8956 108.386 15.8956C107.542 15.8956 106.699 15.3894 106.192 14.7146C102.987 9.31581 96.5759 6.27901 88.9839 6.27901Z" fill="#1C2947"/>
<path d="M159.673 67.0123C159.166 67.0123 158.66 66.8436 158.154 66.5062C156.973 65.6626 156.636 64.1442 157.479 62.9632C167.265 48.7915 169.795 33.9449 164.734 19.9419C162.541 14.037 158.829 8.63822 153.768 4.42044C152.755 3.57688 152.587 1.88981 153.43 0.877545C154.274 -0.134722 155.961 -0.303454 156.973 0.540102C162.709 5.26402 166.927 11.3376 169.458 18.2548C175.025 33.7762 172.495 50.3099 161.697 65.8313C161.191 66.6749 160.516 67.0123 159.673 67.0123Z" fill="#FF5B5E"/>
<path d="M176.379 62.4521C176.042 62.4521 175.704 62.4521 175.367 62.2834C174.186 61.6085 173.511 60.0901 174.186 58.9092C180.934 44.7374 181.778 30.3969 176.717 16.3939C175.367 12.6823 173.511 8.97065 171.149 5.76514C170.306 4.58416 170.643 3.06575 171.824 2.22219C173.005 1.37864 174.523 1.71605 175.367 2.89703C177.898 6.60867 179.922 10.489 181.441 14.7068C187.008 29.8908 185.996 45.9184 178.741 61.1024C178.235 61.9459 177.223 62.4521 176.379 62.4521Z" fill="#FF5B5E"/>
<path d="M11.8843 148.837C13.841 148.837 15.4272 147.251 15.4272 145.294C15.4272 143.338 13.841 141.752 11.8843 141.752C9.92756 141.752 8.34135 143.338 8.34135 145.294C8.34135 147.251 9.92756 148.837 11.8843 148.837Z" fill="#FFC163"/>
</svg>
