<svg width="20" height="20" viewBox="0 0 20 20" fill="none" xmlns="http://www.w3.org/2000/svg">
<g opacity="0.3">
<path d="M4.42579 15.3188C2.80846 13.7303 1.81955 11.6717 1.58995 9.4512C0.73037 10.5378 0.264293 11.8705 0.266441 13.2692C0.267886 14.179 0.472645 15.0833 0.860639 15.901L0.0605888 18.2293C-0.0769455 18.6296 0.0235198 19.0642 0.322806 19.3635C0.533424 19.5741 0.81111 19.6863 1.09669 19.6863C1.21684 19.6863 1.3384 19.6665 1.45695 19.6257L3.78534 18.8256C4.60309 19.2136 5.50739 19.4184 6.41713 19.4198C7.84321 19.4217 9.20047 18.9379 10.2983 18.0461C8.09086 17.8464 6.03167 16.8961 4.42579 15.3188Z" fill="#001829"/>
<path d="M19.9276 15.5397L18.766 12.1593C19.3259 11.0147 19.6218 9.74181 19.6238 8.46104C19.6272 6.23404 18.7656 4.12837 17.1976 2.53194C15.6293 0.935164 13.5395 0.0363672 11.313 0.00109499C9.00426 -0.0354272 6.83418 0.842745 5.20271 2.47417C3.57125 4.10564 2.69292 6.27568 2.72948 8.58451C2.76475 10.811 3.66355 12.9008 5.26025 14.4691C6.85355 16.0341 8.95387 16.8955 11.1761 16.8954C11.1805 16.8954 11.1851 16.8954 11.1894 16.8954C12.4702 16.8934 13.7431 16.5975 14.8877 16.0376L18.2682 17.1992C18.4091 17.2476 18.5535 17.2712 18.6963 17.2712C19.0356 17.2712 19.3656 17.1379 19.616 16.8875C19.9716 16.5318 20.091 16.0155 19.9276 15.5397ZM11.9922 11.3792H7.63013C7.30139 11.3792 7.03492 11.1127 7.03492 10.784C7.03492 10.4552 7.30143 10.1887 7.63013 10.1887H11.9922C12.3209 10.1887 12.5874 10.4553 12.5874 10.784C12.5874 11.1127 12.3209 11.3792 11.9922 11.3792ZM14.7221 8.93125H7.63017C7.30143 8.93125 7.03495 8.66474 7.03495 8.33604C7.03495 8.00734 7.30147 7.74083 7.63017 7.74083H14.7221C15.0508 7.74083 15.3173 8.00734 15.3173 8.33604C15.3173 8.66474 15.0508 8.93125 14.7221 8.93125ZM14.7221 6.48325H7.63017C7.30143 6.48325 7.03495 6.21674 7.03495 5.88804C7.03495 5.5593 7.30147 5.29282 7.63017 5.29282H14.7221C15.0508 5.29282 15.3173 5.55934 15.3173 5.88804C15.3173 6.21674 15.0508 6.48325 14.7221 6.48325Z" fill="#001829"/>
</g>
</svg>
