<svg width="14" height="20" viewBox="0 0 14 20" fill="none" xmlns="http://www.w3.org/2000/svg">
<g opacity="0.3">
<path d="M13.3 19.9981C13.1288 19.9987 12.9633 19.9351 12.8349 19.8196L7 14.5259L1.16506 19.8196C1.06409 19.9112 0.939298 19.971 0.805746 19.9918C0.672194 20.0126 0.53559 19.9936 0.412416 19.9369C0.289242 19.8803 0.184762 19.7885 0.111582 19.6726C0.0384024 19.5568 -0.000349381 19.4218 2.37356e-06 19.2839V2.85688C0.000812998 2.09944 0.296072 1.37326 0.820999 0.837673C1.34592 0.302084 2.05764 0.000827091 2.8 0H11.2C11.9424 0.000827091 12.6541 0.302084 13.179 0.837673C13.7039 1.37326 13.9992 2.09944 14 2.85688V19.2839C14 19.4733 13.9263 19.655 13.795 19.789C13.6637 19.9229 13.4857 19.9981 13.3 19.9981Z" fill="#001829"/>
</g>
</svg>
